<svg width="21" height="20" viewBox="0 0 21 20" fill="none" xmlns="http://www.w3.org/2000/svg">
<path d="M8.4089 1.29408C8.58045 1.29408 8.74498 1.36223 8.86628 1.48354C8.98759 1.60484 9.05573 1.76937 9.05573 1.94092C9.05573 2.11247 8.98759 2.277 8.86628 2.3983C8.74498 2.51961 8.58045 2.58776 8.4089 2.58776H3.88103C3.19482 2.58776 2.53672 2.86035 2.05149 3.34558C1.56627 3.8308 1.29368 4.4889 1.29368 5.17511V15.5245C1.29368 16.2107 1.56627 16.8688 2.05149 17.3541C2.53672 17.8393 3.19482 18.1119 3.88103 18.1119H14.2304C14.9167 18.1119 15.5748 17.8393 16.06 17.3541C16.5452 16.8688 16.8178 16.2107 16.8178 15.5245V13.584C16.8178 13.4125 16.8859 13.2479 17.0072 13.1266C17.1286 13.0053 17.2931 12.9372 17.4646 12.9372C17.6362 12.9372 17.8007 13.0053 17.922 13.1266C18.0433 13.2479 18.1115 13.4125 18.1115 13.584V15.5245C18.1115 16.5538 17.7026 17.541 16.9747 18.2688C16.2469 18.9967 15.2598 19.4056 14.2304 19.4056H3.88103C2.85172 19.4056 1.86456 18.9967 1.13673 18.2688C0.408893 17.541 0 16.5538 0 15.5245V5.17511C0 4.1458 0.408893 3.15864 1.13673 2.43081C1.86456 1.70298 2.85172 1.29408 3.88103 1.29408H8.4089ZM13.321 0.0560338C13.4352 0.0051196 13.5617 -0.0115908 13.6853 0.00792541C13.8088 0.0274416 13.924 0.0823477 14.017 0.165996L20.4854 5.98754C20.5529 6.0482 20.6069 6.1224 20.6439 6.20532C20.6809 6.28823 20.7 6.378 20.7 6.46879C20.7 6.55957 20.6809 6.64934 20.6439 6.73226C20.6069 6.81517 20.5529 6.88937 20.4854 6.95004L14.017 12.7716C13.924 12.8555 13.8087 12.9106 13.6851 12.9302C13.5614 12.9499 13.4347 12.9332 13.3204 12.8822C13.206 12.8313 13.1089 12.7482 13.0408 12.6432C12.9727 12.5381 12.9366 12.4155 12.9368 12.2903V9.49599C11.1256 9.66158 9.48912 10.5051 8.15016 11.5762C6.83708 12.628 5.85389 13.8634 5.31054 14.7897L5.10614 15.1662C5.04093 15.2963 4.93374 15.4006 4.8019 15.4623C4.67006 15.5239 4.52127 15.5393 4.3796 15.506C4.23793 15.4726 4.11165 15.3924 4.02118 15.2784C3.93071 15.1644 3.88133 15.0232 3.88103 14.8777C3.88103 12.2269 4.37521 9.33558 5.84483 7.08458C7.25752 4.92673 9.53181 3.41959 12.9368 3.25141V0.647244L12.9432 0.552806C12.9592 0.444861 13.0022 0.342706 13.0682 0.255849C13.1343 0.168991 13.2212 0.100254 13.321 0.0560338ZM14.2304 3.88143C14.2304 4.05299 14.1623 4.21751 14.041 4.33882C13.9197 4.46012 13.7552 4.52827 13.5836 4.52827C10.2356 4.52827 8.17992 5.88017 6.92893 7.79222C6.04276 9.14929 5.54082 10.8194 5.31701 12.5581C5.87717 11.8854 6.55894 11.1946 7.34161 10.5659C8.982 9.25407 11.1256 8.17127 13.5836 8.17127C13.7552 8.17127 13.9197 8.23941 14.041 8.36072C14.1623 8.48203 14.2304 8.64655 14.2304 8.8181V10.8362L19.0817 6.46879L14.2304 2.10004V3.88143Z" fill="#6B6D70"/>
</svg>
