# Blender 4.4.3
# www.blender.org
mtllib asscher.mtl
o Main_Asscher
v -1.986424 -0.875271 -1.270782
v -1.986424 -0.875271 -1.270782
v -1.986424 -0.875271 -1.270782
v -1.986424 -0.875271 -1.270782
v 0.000333 -2.244405 0.000001
v 0.000333 -2.244405 0.000001
v 0.000333 -2.244405 0.000001
v 0.000333 -2.244405 0.000001
v 0.000333 -2.244405 0.000001
v 0.000333 -2.244405 0.000001
v 0.000333 -2.244405 0.000001
v 0.000333 -2.244405 0.000001
v -1.905067 0.263056 -2.978395
v -1.905067 0.263056 -2.978395
v -1.905067 0.263056 -2.978395
v -1.905067 0.263056 -2.978395
v -1.333597 1.031533 -2.084877
v -1.333597 1.031533 -2.084877
v -1.333597 1.031533 -2.084877
v -1.333597 1.031533 -2.084877
v -2.085638 1.031533 -1.334321
v -2.085638 1.031533 -1.334321
v -2.085638 1.031533 -1.334321
v -2.085638 1.031533 -1.334321
v -1.905069 0.404418 -2.978395
v -1.905069 0.404418 -2.978395
v -1.905069 0.404418 -2.978395
v -1.905069 0.404418 -2.978395
v 0.993961 -1.644084 -0.635391
v 0.993961 -1.644084 -0.635391
v 0.993961 -1.644084 -0.635391
v 0.993961 -1.644084 -0.635391
v -0.635132 -1.644084 -0.992800
v -0.635132 -1.644084 -0.992800
v -0.635132 -1.644084 -0.992800
v -0.635132 -1.644084 -0.992800
v 0.636790 -1.644084 -0.992800
v 0.636790 -1.644084 -0.992800
v 0.636790 -1.644084 -0.992800
v 0.636790 -1.644084 -0.992800
v -1.047199 1.243072 -1.638117
v -1.047199 1.243072 -1.638117
v -1.047199 1.243072 -1.638117
v 1.049518 1.243072 -1.638117
v 1.049518 1.243072 -1.638117
v 1.049518 1.243072 -1.638117
v -1.619332 0.756476 -2.531636
v -1.619332 0.756476 -2.531636
v -1.619332 0.756476 -2.531636
v -1.619332 0.756476 -2.531636
v 1.335255 1.031533 -2.084877
v 1.335255 1.031533 -2.084877
v 1.335255 1.031533 -2.084877
v 1.335255 1.031533 -2.084877
v 1.620990 0.756476 -2.531636
v 1.620990 0.756476 -2.531636
v 1.620990 0.756476 -2.531636
v 1.620990 0.756476 -2.531636
v 1.906725 0.263056 -2.978395
v 1.906725 0.263056 -2.978395
v 1.906725 0.263056 -2.978395
v 1.906725 0.263056 -2.978395
v 1.906725 0.404418 -2.978395
v 1.906725 0.404418 -2.978395
v 1.906725 0.404418 -2.978395
v 1.906725 0.404418 -2.978395
v 2.978234 0.404418 -1.906172
v 2.978234 0.404418 -1.906172
v 2.978234 0.404418 -1.906172
v 2.978234 0.404418 -1.906172
v -1.270100 -0.875271 -1.985597
v -1.270100 -0.875271 -1.985597
v -1.270100 -0.875271 -1.985597
v -1.270100 -0.875271 -1.985597
v 1.271758 -0.875271 -1.985597
v 1.271758 -0.875271 -1.985597
v 1.271758 -0.875271 -1.985597
v 1.271758 -0.875271 -1.985597
v -1.270100 -0.875271 1.985598
v -1.270100 -0.875271 1.985598
v -1.270100 -0.875271 1.985598
v -1.270100 -0.875271 1.985598
v -1.986424 -0.875271 1.270783
v -1.986424 -0.875271 1.270783
v -1.986424 -0.875271 1.270783
v -1.986424 -0.875271 1.270783
v -1.905067 0.263056 2.978396
v -1.905067 0.263056 2.978396
v -1.905067 0.263056 2.978396
v -1.905067 0.263056 2.978396
v -0.994287 -1.644084 -0.635391
v -0.994287 -1.644084 -0.635391
v -0.994287 -1.644084 -0.635391
v -0.994287 -1.644084 -0.635391
v -1.047199 1.243072 1.638118
v -1.047199 1.243072 1.638118
v -1.047199 1.243072 1.638118
v -1.619332 0.756476 2.531637
v -1.619332 0.756476 2.531637
v -1.619332 0.756476 2.531637
v -1.619332 0.756476 2.531637
v -2.532099 0.756476 1.620248
v -2.532099 0.756476 1.620248
v -2.532099 0.756476 1.620248
v -2.532099 0.756476 1.620248
v -1.637852 1.243072 -1.048394
v -1.637852 1.243072 -1.048394
v -1.637852 1.243072 -1.048394
v -2.085638 1.031533 1.334322
v -2.085638 1.031533 1.334322
v -2.085638 1.031533 1.334322
v -2.085638 1.031533 1.334322
v -2.532099 0.756476 -1.620247
v -2.532099 0.756476 -1.620247
v -2.532099 0.756476 -1.620247
v -2.532099 0.756476 -1.620247
v -2.978560 0.404418 -1.906172
v -2.978560 0.404418 -1.906172
v -2.978560 0.404418 -1.906172
v -2.978560 0.404418 -1.906172
v -2.978560 0.404418 1.906174
v -2.978560 0.404418 1.906174
v -2.978560 0.404418 1.906174
v -2.978560 0.404418 1.906174
v -2.978560 0.263056 -1.906172
v -2.978560 0.263056 -1.906172
v -2.978560 0.263056 -1.906172
v -2.978560 0.263056 -1.906172
v -0.994287 -1.644084 0.635393
v -0.994287 -1.644084 0.635393
v -0.994287 -1.644084 0.635393
v -0.994287 -1.644084 0.635393
v -2.978560 0.263056 1.906174
v -2.978560 0.263056 1.906174
v -2.978560 0.263056 1.906174
v -2.978560 0.263056 1.906174
v 1.271758 -0.875271 1.985598
v 1.271758 -0.875271 1.985598
v 1.271758 -0.875271 1.985598
v 1.271758 -0.875271 1.985598
v 0.993961 -1.644084 0.635393
v 0.993961 -1.644084 0.635393
v 0.993961 -1.644084 0.635393
v 0.993961 -1.644084 0.635393
v 2.978234 0.263056 1.906174
v 2.978234 0.263056 1.906174
v 2.978234 0.263056 1.906174
v 2.978234 0.263056 1.906174
v 1.986097 -0.875271 1.270783
v 1.986097 -0.875271 1.270783
v 1.986097 -0.875271 1.270783
v 1.986097 -0.875271 1.270783
v -1.637852 1.243072 1.048396
v -1.637852 1.243072 1.048396
v -1.637852 1.243072 1.048396
v 1.638848 1.243072 -1.048394
v 1.638848 1.243072 -1.048394
v 1.638848 1.243072 -1.048394
v 1.049518 1.243072 1.638118
v 1.049518 1.243072 1.638118
v 1.049518 1.243072 1.638118
v -1.333597 1.031533 2.084878
v -1.333597 1.031533 2.084878
v -1.333597 1.031533 2.084878
v -1.333597 1.031533 2.084878
v 1.335255 1.031533 2.084878
v 1.335255 1.031533 2.084878
v 1.335255 1.031533 2.084878
v 1.335255 1.031533 2.084878
v 2.085311 1.031533 1.334322
v 2.085311 1.031533 1.334322
v 2.085311 1.031533 1.334322
v 2.085311 1.031533 1.334322
v 1.906725 0.404418 2.978396
v 1.906725 0.404418 2.978396
v 1.906725 0.404418 2.978396
v 1.906725 0.404418 2.978396
v 1.620990 0.756476 2.531637
v 1.620990 0.756476 2.531637
v 1.620990 0.756476 2.531637
v 1.620990 0.756476 2.531637
v 2.531773 0.756476 1.620248
v 2.531773 0.756476 1.620248
v 2.531773 0.756476 1.620248
v 2.531773 0.756476 1.620248
v 2.085311 1.031533 -1.334321
v 2.085311 1.031533 -1.334321
v 2.085311 1.031533 -1.334321
v 2.085311 1.031533 -1.334321
v 1.638848 1.243072 1.048396
v 1.638848 1.243072 1.048396
v 1.638848 1.243072 1.048396
v 2.531773 0.756476 -1.620247
v 2.531773 0.756476 -1.620247
v 2.531773 0.756476 -1.620247
v 2.531773 0.756476 -1.620247
v -1.905067 0.404418 2.978396
v -1.905067 0.404418 2.978396
v -1.905067 0.404418 2.978396
v -1.905067 0.404418 2.978396
v 1.906725 0.263056 2.978396
v 1.906725 0.263056 2.978396
v 1.906725 0.263056 2.978396
v 1.906725 0.263056 2.978396
v 2.978234 0.404418 1.906174
v 2.978234 0.404418 1.906174
v 2.978234 0.404418 1.906174
v 2.978234 0.404418 1.906174
v -0.635132 -1.644084 0.992801
v -0.635132 -1.644084 0.992801
v -0.635132 -1.644084 0.992801
v -0.635132 -1.644084 0.992801
v 0.636790 -1.644084 0.992801
v 0.636790 -1.644084 0.992801
v 0.636790 -1.644084 0.992801
v 0.636790 -1.644084 0.992801
v 1.986097 -0.875271 -1.270782
v 1.986097 -0.875271 -1.270782
v 1.986097 -0.875271 -1.270782
v 1.986097 -0.875271 -1.270782
v 2.978234 0.263056 -1.906172
v 2.978234 0.263056 -1.906172
v 2.978234 0.263056 -1.906172
v 2.978234 0.263056 -1.906172
v -0.011878 0.263056 0.003229
v -0.010477 0.263056 0.003229
v -0.011878 0.263056 -0.003220
v -0.010477 0.263056 -0.003220
v -0.009088 0.263056 0.003208
v -0.007686 0.263056 0.003208
v -0.009088 0.263056 -0.003240
v -0.007686 0.263056 -0.003240
v -0.005759 0.263056 0.003208
v -0.004358 0.263056 0.003208
v -0.005759 0.263056 -0.003240
v -0.004358 0.263056 -0.003240
v -0.003031 0.263056 0.003229
v -0.001650 0.263056 0.001844
v -0.003031 0.263056 -0.003220
v -0.001588 0.263056 -0.001938
v 0.001771 0.263056 -0.003271
v 0.000391 0.263056 -0.001886
v 0.001771 0.263056 0.003177
v 0.000329 0.263056 0.001896
v 0.004817 0.263056 0.003229
v 0.006218 0.263056 0.003229
v 0.002609 0.263056 -0.003220
v 0.004010 0.263056 -0.003220
v 0.006975 0.263056 -0.003246
v 0.008376 0.263056 -0.003246
v 0.011568 0.263056 -0.003179
v 0.010167 0.263056 -0.003179
v 0.013776 0.263056 0.003270
v 0.012375 0.263056 0.003270
v 0.009410 0.263056 0.003296
v 0.008009 0.263056 0.003296
vn -0.4969 -0.7111 -0.4975
vn -0.3924 -0.8315 0.3933
vn -0.3920 -0.8316 0.3934
vn -0.3314 0.8831 -0.3321
vn -0.3314 0.8832 -0.3319
vn -0.3314 0.8832 0.3319
vn -0.3314 0.8831 0.3321
vn -0.3972 0.8271 0.3977
vn -0.3973 0.8270 0.3979
vn -0.2668 0.9260 0.2672
vn -0.2668 0.9259 0.2674
vn 0.3977 0.8270 -0.3974
vn 0.6125 -0.7905 -0.0000
vn 0.3929 -0.8315 0.3926
vn -0.3260 -0.8868 0.3276
vn -0.0000 -0.8557 0.5174
vn 0.7539 -0.6570 -0.0000
vn -0.4271 0.9042 -0.0000
vn -0.0000 0.7854 -0.6189
vn -0.0000 1.0000 -0.0000
vn -0.7067 -0.0000 0.7075
vn -0.0000 -0.6573 -0.7536
vn 1.0000 -0.0000 -0.0000
vn 0.3318 0.8832 0.3316
vn -0.3920 -0.8316 -0.3934
vn -0.3924 -0.8315 -0.3933
vn 0.3269 -0.8868 0.3267
vn -0.4969 -0.7111 0.4975
vn 0.3269 -0.8868 -0.3267
vn -0.6192 0.7852 -0.0000
vn -0.2668 0.9260 -0.2672
vn -0.2668 0.9259 -0.2674
vn -0.3972 0.8271 -0.3978
vn -0.3971 0.8271 -0.3979
vn -0.0000 -0.0000 -1.0000
vn 0.3929 -0.8315 -0.3926
vn -0.0000 -0.8557 -0.5174
vn 0.7073 -0.0000 0.7069
vn -0.0000 0.9038 -0.4279
vn 0.4974 -0.7110 0.4971
vn -0.0000 0.8515 0.5243
vn -0.7539 -0.6570 -0.0000
vn 0.4974 -0.7110 -0.4971
vn 0.2675 0.9258 -0.2673
vn 0.5171 -0.8559 -0.0000
vn -0.0000 0.9038 0.4279
vn -0.0000 0.7854 0.6189
vn -0.3260 -0.8868 -0.3276
vn -0.0000 0.8515 -0.5243
vn -0.5167 -0.8561 -0.0000
vn -0.0000 -0.7906 -0.6123
vn -0.0000 -0.0000 1.0000
vn -0.6125 -0.7905 -0.0000
vn -1.0000 -0.0000 -0.0000
vn 0.4282 0.9037 -0.0000
vn 0.2675 0.9258 0.2673
vn -0.7067 -0.0000 -0.7075
vn 0.3977 0.8270 0.3974
vn 0.6192 0.7852 -0.0000
vn 0.7073 -0.0000 -0.7069
vn -0.5245 0.8514 -0.0000
vn -0.0000 -0.6573 0.7536
vn 0.3318 0.8832 -0.3316
vn -0.0000 -0.7906 0.6123
vn 0.5245 0.8514 -0.0000
vt 0.000000 0.000000
vt 1.000000 0.000000
vt 1.000000 1.000000
vt 0.000000 1.000000
s 0
usemtl Diamond
f 125/1/1 15/1/1 74/1/1
s 1
f 125/1/1 74/1/1 2/1/1
s 0
f 81/1/2 83/1/2 130/1/2
s 1
f 81/1/3 130/1/3 212/1/3
s 0
f 113/1/4 22/1/4 20/1/4
f 113/1/5 20/1/5 49/1/5
f 102/1/6 100/1/6 165/1/6
f 102/1/7 165/1/7 110/1/7
f 121/1/8 199/1/8 101/1/8
f 121/1/9 101/1/9 103/1/9
f 97/1/10 154/1/10 109/1/10
f 97/1/11 109/1/11 164/1/11
f 58/1/12 194/1/12 67/1/12
f 58/1/12 67/1/12 65/1/12
f 219/1/13 151/1/13 144/1/13
f 219/1/13 144/1/13 32/1/13
f 149/1/14 139/1/14 216/1/14
f 149/1/14 216/1/14 142/1/14
f 129/1/15 10/1/15 211/1/15
f 214/1/16 210/1/16 5/1/16
f 220/1/17 223/1/17 147/1/17
f 220/1/17 147/1/17 152/1/17
f 155/1/18 108/1/18 23/1/18
f 155/1/18 23/1/18 111/1/18
f 47/1/19 55/1/19 64/1/19
f 47/1/19 64/1/19 26/1/19
f 96/1/20 160/1/20 190/1/20
f 190/1/20 156/1/20 45/1/20
f 45/1/20 42/1/20 106/1/20
f 106/1/20 153/1/20 96/1/20
f 96/1/20 190/1/20 45/1/20
f 45/1/20 106/1/20 96/1/20
s 1
f 123/1/21 134/1/21 90/1/21
s 0
f 123/1/21 90/1/21 200/1/21
f 75/1/22 71/1/22 14/1/22
f 75/1/22 14/1/22 60/1/22
f 70/1/23 208/1/23 148/1/23
f 70/1/23 148/1/23 224/1/23
f 169/1/24 180/1/24 182/1/24
f 169/1/24 182/1/24 171/1/24
s 1
f 73/1/25 36/1/25 92/1/25
s 0
f 73/1/26 92/1/26 1/1/26
f 7/1/27 141/1/27 215/1/27
f 82/1/28 89/1/28 133/1/28
s 1
f 82/1/28 133/1/28 84/1/28
s 0
f 29/1/29 8/1/29 39/1/29
f 122/1/30 105/1/30 116/1/30
f 122/1/30 116/1/30 118/1/30
f 21/1/31 107/1/31 43/1/31
f 21/1/32 43/1/32 19/1/32
f 114/1/33 50/1/33 27/1/33
f 114/1/34 27/1/34 117/1/34
f 63/1/35 59/1/35 13/1/35
f 63/1/35 13/1/35 25/1/35
f 40/1/36 77/1/36 217/1/36
f 40/1/36 217/1/36 30/1/36
f 6/1/37 34/1/37 38/1/37
f 177/1/38 204/1/38 146/1/38
f 177/1/38 146/1/38 207/1/38
f 52/1/39 18/1/39 41/1/39
f 52/1/39 41/1/39 44/1/39
f 150/1/40 145/1/40 203/1/40
s 1
f 150/1/40 203/1/40 140/1/40
s 0
f 179/1/41 166/1/41 162/1/41
f 179/1/41 162/1/41 99/1/41
f 86/1/42 135/1/42 127/1/42
f 86/1/42 127/1/42 4/1/42
s 1
f 218/1/43 78/1/43 61/1/43
s 0
f 218/1/43 61/1/43 221/1/43
f 157/1/44 186/1/44 53/1/44
f 157/1/44 53/1/44 46/1/44
f 9/1/45 31/1/45 143/1/45
f 95/1/46 163/1/46 167/1/46
f 95/1/46 167/1/46 159/1/46
f 98/1/47 198/1/47 175/1/47
f 98/1/47 175/1/47 178/1/47
f 35/1/48 11/1/48 91/1/48
f 56/1/49 48/1/49 17/1/49
f 56/1/49 17/1/49 51/1/49
f 12/1/50 131/1/50 93/1/50
f 37/1/51 33/1/51 72/1/51
f 37/1/51 72/1/51 76/1/51
f 174/1/52 197/1/52 87/1/52
f 174/1/52 87/1/52 201/1/52
f 132/1/53 85/1/53 3/1/53
f 132/1/53 3/1/53 94/1/53
f 120/1/54 128/1/54 136/1/54
f 120/1/54 136/1/54 124/1/54
f 172/1/55 188/1/55 158/1/55
f 172/1/55 158/1/55 192/1/55
f 170/1/56 191/1/56 161/1/56
s 1
f 170/1/56 161/1/56 168/1/56
f 28/1/57 16/1/57 126/1/57
s 0
f 28/1/57 126/1/57 119/1/57
f 181/1/58 176/1/58 205/1/58
f 181/1/58 205/1/58 183/1/58
f 185/1/59 206/1/59 68/1/59
f 185/1/59 68/1/59 196/1/59
f 66/1/60 69/1/60 222/1/60
f 66/1/60 222/1/60 62/1/60
f 112/1/61 24/1/61 115/1/61
f 112/1/61 115/1/61 104/1/61
f 88/1/62 79/1/62 137/1/62
f 88/1/62 137/1/62 202/1/62
f 193/1/63 57/1/63 54/1/63
f 193/1/63 54/1/63 187/1/63
f 209/1/64 213/1/64 138/1/64
f 209/1/64 138/1/64 80/1/64
f 173/1/65 184/1/65 195/1/65
f 173/1/65 195/1/65 189/1/65
f 225/1/20 226/2/20 228/3/20
f 225/1/20 228/3/20 227/4/20
f 229/1/20 230/2/20 232/3/20
f 229/1/20 232/3/20 231/4/20
f 233/1/20 234/2/20 236/3/20
f 233/1/20 236/3/20 235/4/20
f 231/4/20 233/1/20 234/2/20
f 231/4/20 234/2/20 232/3/20
f 237/1/20 238/2/20 240/3/20
f 237/1/20 240/3/20 239/4/20
f 241/1/20 242/2/20 244/3/20
f 241/1/20 244/3/20 243/4/20
f 239/4/20 240/3/20 242/2/20
f 239/4/20 242/2/20 241/1/20
f 238/2/20 237/1/20 243/4/20
f 238/2/20 243/4/20 244/3/20
f 245/1/20 246/2/20 248/3/20
f 245/1/20 248/3/20 247/4/20
f 246/2/20 250/2/20 249/1/20
f 246/2/20 249/1/20 245/1/20
f 251/1/20 252/2/20 254/3/20
f 251/1/20 254/3/20 253/4/20
f 252/2/20 256/2/20 255/1/20
f 252/2/20 255/1/20 251/1/20
