# Blender 4.4.3
# www.blender.org
mtllib moval stone.mtl
o geometry_0
v -0.605359 0.072727 -1.159611
v -0.213930 -0.808613 -0.195276
v -0.397268 -0.330722 -0.771681
v -0.318328 -0.514390 -0.565863
v -0.239388 -0.698057 -0.360046
v -0.287031 -0.513835 -0.624834
v -0.227010 -0.660836 -0.454283
v -0.166988 -0.807836 -0.283733
v -0.176796 -0.696949 -0.477987
v -0.135693 -0.807282 -0.342703
v -0.094588 -0.917615 -0.207418
v -0.088750 -0.806397 -0.431158
v -0.000000 -1.101059 -0.031097
v -0.855995 0.062023 -0.020171
v -0.213930 -0.811749 0.138557
v -0.561722 -0.337746 -0.023926
v -0.427965 -0.519857 0.016097
v -0.294206 -0.701967 0.056120
v -0.427965 -0.519073 -0.067354
v -0.320965 -0.664850 -0.026999
v -0.213964 -0.810627 0.013365
v -0.294206 -0.700399 -0.110792
v -0.213964 -0.809843 -0.070085
v -0.133725 -0.919287 -0.029389
v -0.213930 -0.808613 -0.195276
v -0.000000 -1.101059 -0.031097
v -0.605359 0.051318 1.119279
v -0.088750 -0.813965 0.374439
v -0.397268 -0.344771 0.723838
v -0.287031 -0.525094 0.573577
v -0.176796 -0.705416 0.423316
v -0.318328 -0.524540 0.514606
v -0.227010 -0.668864 0.400295
v -0.135693 -0.813188 0.285983
v -0.239388 -0.704308 0.305375
v -0.166988 -0.812634 0.227012
v -0.094588 -0.920960 0.148649
v -0.213930 -0.811749 0.138557
v -0.000000 -1.101059 -0.031097
v -0.000000 0.046886 1.591043
v 0.088750 -0.813965 0.374439
v -0.000000 -0.347679 1.033433
v 0.022188 -0.527032 0.779974
v 0.044375 -0.706386 0.526514
v -0.022188 -0.527032 0.779974
v -0.000000 -0.670526 0.577206
v 0.022188 -0.814019 0.374438
v -0.044375 -0.706386 0.526514
v -0.022188 -0.814019 0.374438
v -0.000000 -0.921652 0.222363
v -0.088750 -0.813965 0.374439
v -0.000000 -1.101059 -0.031097
v 0.605359 0.072727 -1.159611
v 0.088750 -0.806397 -0.431158
v 0.397268 -0.330722 -0.771681
v 0.287033 -0.513835 -0.624834
v 0.176796 -0.696949 -0.477987
v 0.318328 -0.514390 -0.565863
v 0.227010 -0.660836 -0.454283
v 0.135693 -0.807282 -0.342703
v 0.239388 -0.698057 -0.360046
v 0.166988 -0.807836 -0.283733
v 0.094588 -0.917615 -0.207418
v 0.213930 -0.808613 -0.195276
v -0.000000 -1.101059 -0.031097
v 0.855995 0.062023 -0.020171
v 0.213930 -0.808613 -0.195276
v 0.561722 -0.337746 -0.023926
v 0.427965 -0.519073 -0.067354
v 0.294206 -0.700399 -0.110792
v 0.427965 -0.519857 0.016097
v 0.320965 -0.664850 -0.026999
v 0.213966 -0.809843 -0.070085
v 0.294206 -0.701967 0.056120
v 0.213966 -0.810627 0.013365
v 0.133725 -0.919287 -0.029389
v 0.213930 -0.811749 0.138557
v -0.000000 -1.101059 -0.031097
v -0.000000 0.077158 -1.631374
v -0.088750 -0.806397 -0.431158
v -0.000000 -0.327814 -1.081275
v -0.022188 -0.511897 -0.831230
v -0.044375 -0.695980 -0.581185
v 0.022188 -0.511897 -0.831230
v -0.000000 -0.659174 -0.631194
v -0.022188 -0.806451 -0.431159
v 0.044375 -0.695980 -0.581185
v 0.022188 -0.806451 -0.431159
v -0.000000 -0.916922 -0.281132
v 0.088750 -0.806397 -0.431158
v -0.000000 -1.101059 -0.031097
v -0.327607 0.076005 -1.508600
v -0.475523 0.097808 -1.359506
v -0.327913 -0.085562 -1.256813
v -0.387937 -0.026529 -1.274386
v -0.447960 0.032504 -1.291959
v -0.291244 -0.252580 -1.042299
v -0.374309 -0.139964 -1.114719
v -0.457375 -0.027349 -1.187139
v -0.254573 -0.419598 -0.827785
v -0.360682 -0.253400 -0.955052
v -0.466790 -0.087201 -1.082318
v -0.088750 -0.806397 -0.431158
v -0.605359 0.072727 -1.159611
v -0.000000 0.077158 -1.631374
v -0.167090 0.100069 -1.600221
v -0.068445 -0.084285 -1.392819
v -0.114703 -0.024839 -1.454318
v -0.160961 0.034607 -1.515817
v -0.095118 -0.251455 -1.162052
v -0.145862 -0.138291 -1.292838
v -0.196606 -0.025127 -1.423624
v -0.121790 -0.418626 -0.931285
v -0.177019 -0.251744 -1.131359
v -0.232248 -0.084861 -1.331432
v -0.088750 -0.806397 -0.431158
v -0.327607 0.076005 -1.508600
v 0.327607 0.076005 -1.508600
v 0.167090 0.100069 -1.600221
v 0.232248 -0.084861 -1.331432
v 0.196606 -0.025127 -1.423624
v 0.160961 0.034607 -1.515817
v 0.177019 -0.251744 -1.131359
v 0.145862 -0.138291 -1.292838
v 0.114703 -0.024839 -1.454318
v 0.121790 -0.418626 -0.931285
v 0.095118 -0.251455 -1.162052
v 0.068445 -0.084285 -1.392819
v 0.088750 -0.806397 -0.431158
v -0.000000 0.077158 -1.631374
v 0.605359 0.051318 1.119279
v 0.213930 -0.811749 0.138557
v 0.397268 -0.344771 0.723838
v 0.318328 -0.524540 0.514606
v 0.239388 -0.704308 0.305375
v 0.287033 -0.525094 0.573577
v 0.227010 -0.668864 0.400295
v 0.166988 -0.812634 0.227012
v 0.176796 -0.705416 0.423316
v 0.135693 -0.813188 0.285983
v 0.094588 -0.920960 0.148649
v 0.088750 -0.813965 0.374439
v -0.000000 -1.101059 -0.031097
v 0.605359 0.072727 -1.159611
v 0.475523 0.097808 -1.359506
v 0.466791 -0.087201 -1.082318
v 0.457375 -0.027349 -1.187139
v 0.447960 0.032504 -1.291959
v 0.360682 -0.253400 -0.955052
v 0.374309 -0.139964 -1.114719
v 0.387937 -0.026529 -1.274386
v 0.254573 -0.419598 -0.827785
v 0.291244 -0.252580 -1.042299
v 0.327913 -0.085562 -1.256813
v 0.088750 -0.806397 -0.431158
v 0.327607 0.076005 -1.508600
v 0.790804 0.067813 -0.636611
v 0.711641 0.093633 -0.915133
v 0.656205 -0.091368 -0.638771
v 0.665827 -0.031443 -0.751265
v 0.675448 0.028482 -0.863759
v 0.541401 -0.257005 -0.571301
v 0.580434 -0.143610 -0.726658
v 0.619467 -0.030215 -0.882015
v 0.426594 -0.422642 -0.503830
v 0.495039 -0.255777 -0.702051
v 0.563486 -0.088912 -0.900271
v 0.213930 -0.808613 -0.195276
v 0.605359 0.072727 -1.159611
v 0.855995 0.062023 -0.020171
v 0.839560 0.088175 -0.334129
v 0.728451 -0.095956 -0.150392
v 0.761425 -0.036276 -0.236845
v 0.794398 0.023405 -0.323297
v 0.605017 -0.260473 -0.202131
v 0.675071 -0.147650 -0.296544
v 0.745127 -0.034828 -0.390957
v 0.481584 -0.424990 -0.253871
v 0.588719 -0.259025 -0.356244
v 0.695855 -0.093061 -0.458617
v 0.213930 -0.808613 -0.195276
v 0.790804 0.067813 -0.636611
v -0.605359 0.072727 -1.159611
v -0.711641 0.093633 -0.915133
v -0.563484 -0.088912 -0.900271
v -0.619467 -0.030215 -0.882015
v -0.675447 0.028482 -0.863759
v -0.495039 -0.255777 -0.702051
v -0.580432 -0.143610 -0.726658
v -0.665827 -0.031443 -0.751265
v -0.426594 -0.422642 -0.503830
v -0.541401 -0.257005 -0.571301
v -0.656205 -0.091368 -0.638771
v -0.213930 -0.808613 -0.195276
v -0.790804 0.067813 -0.636611
v -0.790804 0.067813 -0.636611
v -0.839560 0.088175 -0.334129
v -0.695855 -0.093061 -0.458617
v -0.745127 -0.034828 -0.390957
v -0.794398 0.023405 -0.323297
v -0.588719 -0.259025 -0.356244
v -0.675071 -0.147650 -0.296544
v -0.761425 -0.036276 -0.236845
v -0.481584 -0.424990 -0.253871
v -0.605017 -0.260473 -0.202131
v -0.728451 -0.095956 -0.150392
v -0.213930 -0.808613 -0.195276
v -0.855995 0.062023 -0.020171
v -0.855995 0.062023 -0.020171
v -0.839560 0.082272 0.294233
v -0.728451 -0.098375 0.107070
v -0.761425 -0.040329 0.194628
v -0.794398 0.017717 0.282186
v -0.605017 -0.263835 0.155709
v -0.675071 -0.152806 0.252225
v -0.745127 -0.041777 0.348741
v -0.481584 -0.429294 0.204348
v -0.588719 -0.265282 0.309822
v -0.695855 -0.101270 0.415295
v -0.213930 -0.811749 0.138557
v -0.790804 0.056231 0.596279
v -0.790804 0.056231 0.596279
v -0.711641 0.076814 0.875237
v -0.656205 -0.102963 0.595449
v -0.665827 -0.045162 0.709048
v -0.675447 0.012639 0.822648
v -0.541401 -0.267303 0.524878
v -0.580432 -0.156846 0.682338
v -0.619467 -0.046390 0.839798
v -0.426594 -0.431643 0.454308
v -0.495039 -0.268531 0.655628
v -0.563484 -0.105419 0.856949
v -0.213930 -0.811749 0.138557
v -0.605359 0.051318 1.119279
v -0.605359 0.051318 1.119279
v -0.475523 0.072640 1.319610
v -0.466790 -0.107129 1.038996
v -0.457375 -0.049256 1.144922
v -0.447960 0.008617 1.250848
v -0.360682 -0.270908 0.908629
v -0.374309 -0.160492 1.070399
v -0.387937 -0.050076 1.232170
v -0.254573 -0.434686 0.778263
v -0.291244 -0.271727 0.995877
v -0.327913 -0.108769 1.213490
v -0.088750 -0.813965 0.374439
v -0.327607 0.048040 1.468268
v -0.327607 0.048040 1.468268
v -0.167090 0.070379 1.560325
v -0.232248 -0.109470 1.288110
v -0.196606 -0.051478 1.381408
v -0.160961 0.006514 1.474707
v -0.177019 -0.272564 1.084936
v -0.145862 -0.162165 1.248519
v -0.114703 -0.051766 1.412101
v -0.121790 -0.435658 0.881763
v -0.095118 -0.272852 1.115630
v -0.068445 -0.110046 1.349497
v -0.088750 -0.813965 0.374439
v -0.000000 0.046886 1.591043
v -0.000000 0.046886 1.591043
v 0.167090 0.070379 1.560325
v 0.068445 -0.110046 1.349497
v 0.114703 -0.051766 1.412101
v 0.160961 0.006514 1.474707
v 0.095118 -0.272852 1.115630
v 0.145862 -0.162165 1.248519
v 0.196606 -0.051478 1.381408
v 0.121790 -0.435658 0.881763
v 0.177019 -0.272564 1.084936
v 0.232248 -0.109470 1.288110
v 0.088750 -0.813965 0.374439
v 0.327607 0.048040 1.468268
v 0.327607 0.048040 1.468268
v 0.475523 0.072640 1.319610
v 0.327913 -0.108769 1.213490
v 0.387937 -0.050076 1.232170
v 0.447960 0.008617 1.250848
v 0.291244 -0.271727 0.995877
v 0.374309 -0.160492 1.070399
v 0.457375 -0.049256 1.144922
v 0.254573 -0.434686 0.778263
v 0.360682 -0.270908 0.908629
v 0.466791 -0.107129 1.038996
v 0.088750 -0.813965 0.374439
v 0.605359 0.051318 1.119279
v 0.605359 0.051318 1.119279
v 0.711641 0.076814 0.875237
v 0.563486 -0.105419 0.856949
v 0.619467 -0.046390 0.839798
v 0.675448 0.012639 0.822648
v 0.495039 -0.268531 0.655628
v 0.580434 -0.156846 0.682338
v 0.665827 -0.045162 0.709048
v 0.426594 -0.431643 0.454308
v 0.541401 -0.267303 0.524878
v 0.656205 -0.102963 0.595449
v 0.213930 -0.811749 0.138557
v 0.790804 0.056231 0.596279
v 0.790804 0.056231 0.596279
v 0.839560 0.082272 0.294233
v 0.695855 -0.101270 0.415295
v 0.745127 -0.041777 0.348741
v 0.794398 0.017717 0.282186
v 0.588719 -0.265282 0.309822
v 0.675071 -0.152806 0.252225
v 0.761425 -0.040329 0.194628
v 0.481584 -0.429294 0.204348
v 0.605017 -0.263835 0.155709
v 0.728451 -0.098375 0.107070
v 0.213930 -0.811749 0.138557
v 0.855995 0.062023 -0.020171
v -0.327607 0.176545 -1.507655
v -0.475523 0.151515 -1.359001
v -0.605359 0.173266 -1.158667
v -0.327607 0.176545 -1.507655
v -0.605359 0.173266 -1.158667
v -0.256935 0.431748 -1.183631
v -0.855995 0.162562 -0.019226
v -0.839560 0.135980 0.294738
v -0.790804 0.156771 0.597224
v -0.855995 0.162562 -0.019226
v -0.790804 0.156771 0.597224
v -0.619877 0.416245 0.466564
v -0.790804 0.168353 -0.635667
v -0.839560 0.141883 -0.333625
v -0.855995 0.162562 -0.019226
v -0.790804 0.168353 -0.635667
v -0.855995 0.162562 -0.019226
v -0.619877 0.425327 -0.500154
v -0.605359 0.151858 1.120224
v -0.475523 0.126347 1.320115
v -0.327607 0.148580 1.469213
v -0.605359 0.151858 1.120224
v -0.327607 0.148580 1.469213
v -0.256935 0.409825 1.150040
v 0.327607 0.148580 1.469213
v 0.475523 0.126347 1.320115
v 0.605359 0.151858 1.120224
v 0.327607 0.148580 1.469213
v 0.605359 0.151858 1.120224
v 0.256934 0.409825 1.150040
v 0.855995 0.162562 -0.019226
v 0.839560 0.141883 -0.333625
v 0.790804 0.168353 -0.635667
v 0.855995 0.162562 -0.019226
v 0.790804 0.168353 -0.635667
v 0.619877 0.425327 -0.500154
v 0.790804 0.156771 0.597224
v 0.839560 0.135980 0.294738
v 0.855995 0.162562 -0.019226
v 0.790804 0.156771 0.597224
v 0.855995 0.162562 -0.019226
v 0.619877 0.416245 0.466564
v 0.605359 0.173266 -1.158667
v 0.475523 0.151515 -1.359001
v 0.327607 0.176545 -1.507655
v 0.605359 0.173266 -1.158667
v 0.327607 0.176545 -1.507655
v 0.256934 0.431748 -1.183631
v -0.256935 0.431748 -1.183631
v -0.363216 0.543644 -0.699174
v -0.000000 0.546305 -0.982425
v -0.619877 0.425327 -0.500154
v -0.513597 0.537223 -0.015707
v -0.363216 0.543644 -0.699174
v -0.619877 0.416245 0.466564
v -0.363216 0.530802 0.667770
v -0.513597 0.537223 -0.015707
v -0.256935 0.409825 1.150040
v -0.000000 0.528141 0.951022
v -0.363216 0.530802 0.667770
v 0.256934 0.409825 1.150040
v 0.363216 0.530802 0.667770
v -0.000000 0.528141 0.951022
v 0.619877 0.416245 0.466564
v 0.513597 0.537223 -0.015707
v 0.363216 0.530802 0.667770
v 0.619877 0.425327 -0.500154
v 0.363216 0.543644 -0.699174
v 0.513597 0.537223 -0.015707
v 0.256934 0.431748 -1.183631
v -0.000000 0.546305 -0.982425
v 0.363216 0.543644 -0.699174
v 0.327607 0.176545 -1.507655
v 0.167090 0.153776 -1.599716
v -0.000000 0.177698 -1.630430
v 0.327607 0.176545 -1.507655
v -0.000000 0.177698 -1.630430
v 0.256934 0.431748 -1.183631
v 0.790804 0.168353 -0.635667
v 0.711641 0.147341 -0.914629
v 0.605359 0.173266 -1.158667
v 0.790804 0.168353 -0.635667
v 0.605359 0.173266 -1.158667
v 0.619877 0.425327 -0.500154
v 0.605359 0.151858 1.120224
v 0.711641 0.130522 0.875742
v 0.790804 0.156771 0.597224
v 0.605359 0.151858 1.120224
v 0.790804 0.156771 0.597224
v 0.619877 0.416245 0.466564
v -0.000000 0.147426 1.591987
v 0.167090 0.124086 1.560830
v 0.327607 0.148580 1.469213
v -0.000000 0.147426 1.591987
v 0.327607 0.148580 1.469213
v 0.256934 0.409825 1.150040
v -0.327607 0.148580 1.469213
v -0.167090 0.124086 1.560830
v -0.000000 0.147426 1.591987
v -0.327607 0.148580 1.469213
v -0.000000 0.147426 1.591987
v -0.256935 0.409825 1.150040
v -0.790804 0.156771 0.597224
v -0.711641 0.130522 0.875742
v -0.605359 0.151858 1.120224
v -0.790804 0.156771 0.597224
v -0.605359 0.151858 1.120224
v -0.619877 0.416245 0.466564
v -0.605359 0.173266 -1.158667
v -0.711641 0.147341 -0.914629
v -0.790804 0.168353 -0.635667
v -0.605359 0.173266 -1.158667
v -0.790804 0.168353 -0.635667
v -0.619877 0.425327 -0.500154
v -0.000000 0.177698 -1.630430
v -0.167090 0.153776 -1.599716
v -0.327607 0.176545 -1.507655
v -0.000000 0.177698 -1.630430
v -0.327607 0.176545 -1.507655
v -0.256935 0.431748 -1.183631
v -0.000000 0.147426 1.591987
v -0.167090 0.124086 1.560830
v -0.000000 0.123795 1.591766
v -0.000000 0.147426 1.591987
v -0.000000 0.123795 1.591766
v 0.167090 0.124086 1.560830
v 0.327607 0.148580 1.469213
v 0.167090 0.124086 1.560830
v 0.327607 0.124948 1.468991
v 0.327607 0.148580 1.469213
v 0.327607 0.124948 1.468991
v 0.475523 0.126347 1.320115
v 0.605359 0.151858 1.120224
v 0.475523 0.126347 1.320115
v 0.605359 0.128227 1.120002
v 0.605359 0.151858 1.120224
v 0.605359 0.128227 1.120002
v 0.711641 0.130522 0.875742
v 0.790804 0.156771 0.597224
v 0.711641 0.130522 0.875742
v 0.790804 0.133140 0.597002
v 0.790804 0.156771 0.597224
v 0.790804 0.133140 0.597002
v 0.839560 0.135980 0.294738
v 0.855995 0.162562 -0.019226
v 0.839560 0.135980 0.294738
v 0.855995 0.138931 -0.019448
v 0.855995 0.162562 -0.019226
v 0.855995 0.138931 -0.019448
v 0.839560 0.141883 -0.333625
v 0.790804 0.168353 -0.635667
v 0.839560 0.141883 -0.333625
v 0.790804 0.144722 -0.635889
v 0.790804 0.168353 -0.635667
v 0.790804 0.144722 -0.635889
v 0.711641 0.147341 -0.914629
v 0.605359 0.173266 -1.158667
v 0.711641 0.147341 -0.914629
v 0.605359 0.149635 -1.158889
v 0.605359 0.173266 -1.158667
v 0.605359 0.149635 -1.158889
v 0.475523 0.151515 -1.359001
v 0.327607 0.176545 -1.507655
v 0.475523 0.151515 -1.359001
v 0.327607 0.152914 -1.507877
v 0.327607 0.176545 -1.507655
v 0.327607 0.152914 -1.507877
v 0.167090 0.153776 -1.599716
v -0.000000 0.177698 -1.630430
v 0.167090 0.153776 -1.599716
v -0.000000 0.154067 -1.630652
v -0.000000 0.177698 -1.630430
v -0.000000 0.154067 -1.630652
v -0.167090 0.153776 -1.599716
v -0.327607 0.176545 -1.507655
v -0.167090 0.153776 -1.599716
v -0.327607 0.152914 -1.507877
v -0.327607 0.176545 -1.507655
v -0.327607 0.152914 -1.507877
v -0.475523 0.151515 -1.359001
v -0.605359 0.173266 -1.158667
v -0.475523 0.151515 -1.359001
v -0.605359 0.149635 -1.158889
v -0.605359 0.173266 -1.158667
v -0.605359 0.149635 -1.158889
v -0.711641 0.147341 -0.914629
v -0.790804 0.168353 -0.635667
v -0.711641 0.147341 -0.914629
v -0.790804 0.144722 -0.635889
v -0.790804 0.168353 -0.635667
v -0.790804 0.144722 -0.635889
v -0.839560 0.141883 -0.333625
v -0.855995 0.162562 -0.019226
v -0.839560 0.141883 -0.333625
v -0.855995 0.138931 -0.019448
v -0.855995 0.162562 -0.019226
v -0.855995 0.138931 -0.019448
v -0.839560 0.135980 0.294738
v -0.790804 0.156771 0.597224
v -0.839560 0.135980 0.294738
v -0.790804 0.133140 0.597002
v -0.790804 0.156771 0.597224
v -0.790804 0.133140 0.597002
v -0.711641 0.130522 0.875742
v -0.605359 0.151858 1.120224
v -0.711641 0.130522 0.875742
v -0.605359 0.128227 1.120002
v -0.605359 0.151858 1.120224
v -0.605359 0.128227 1.120002
v -0.475523 0.126347 1.320115
v -0.327607 0.148580 1.469213
v -0.475523 0.126347 1.320115
v -0.327607 0.124948 1.468991
v -0.327607 0.148580 1.469213
v -0.327607 0.124948 1.468991
v -0.167090 0.124086 1.560830
v 0.363216 0.543644 -0.699174
v -0.000000 0.537223 -0.015707
v -0.000000 0.546305 -0.982425
v -0.363216 0.543644 -0.699174
v -0.363216 0.530802 0.667770
v -0.000000 0.537223 -0.015707
v -0.000000 0.528141 0.951022
v 0.363216 0.530802 0.667770
v 0.363216 0.530802 0.667770
v -0.000000 0.537223 -0.015707
v 0.513597 0.537223 -0.015707
v 0.363216 0.543644 -0.699174
v -0.363216 0.543644 -0.699174
v -0.000000 0.537223 -0.015707
v -0.513597 0.537223 -0.015707
v -0.363216 0.530802 0.667770
v -0.619877 0.425327 -0.500154
v -0.513597 0.537223 -0.015707
v -0.644222 0.396471 -0.258722
v -0.609537 0.433307 -0.137525
v -0.574851 0.470143 -0.016337
v -0.695137 0.339642 -0.138405
v -0.652337 0.385339 -0.017133
v -0.609537 0.431037 0.104148
v -0.746050 0.282813 -0.018097
v -0.695137 0.337372 0.103268
v -0.644222 0.391931 0.224632
v -0.855995 0.162562 -0.019226
v -0.619877 0.416245 0.466564
v -0.619877 0.416245 0.466564
v -0.363216 0.530802 0.667770
v -0.546347 0.387751 0.669568
v -0.476447 0.425353 0.709158
v -0.406547 0.462956 0.748748
v -0.536983 0.330617 0.822272
v -0.461346 0.377183 0.851150
v -0.385712 0.423748 0.880027
v -0.527618 0.273483 0.974975
v -0.446247 0.329012 0.993141
v -0.364876 0.384540 1.011307
v -0.605359 0.151858 1.120224
v -0.256935 0.409825 1.150040
v 0.256934 0.409825 1.150040
v 0.363216 0.530802 0.667770
v 0.364876 0.384540 1.011307
v 0.385712 0.423748 0.880027
v 0.406547 0.462956 0.748748
v 0.446249 0.329012 0.993141
v 0.461346 0.377183 0.851150
v 0.476447 0.425353 0.709158
v 0.527618 0.273483 0.974975
v 0.536983 0.330617 0.822272
v 0.546347 0.387751 0.669568
v 0.605359 0.151858 1.120224
v 0.619877 0.416245 0.466564
v 0.619877 0.416245 0.466564
v 0.513597 0.537223 -0.015707
v 0.644222 0.391931 0.224632
v 0.609537 0.431037 0.104148
v 0.574851 0.470143 -0.016337
v 0.695137 0.337372 0.103268
v 0.652337 0.385339 -0.017133
v 0.609537 0.433307 -0.137525
v 0.746050 0.282813 -0.018097
v 0.695137 0.339642 -0.138405
v 0.644222 0.396471 -0.258722
v 0.855995 0.162562 -0.019226
v 0.619877 0.425327 -0.500154
v 0.619877 0.425327 -0.500154
v 0.363216 0.543644 -0.699174
v 0.546347 0.400651 -0.703659
v 0.476447 0.438991 -0.742535
v 0.406547 0.477330 -0.781412
v 0.536983 0.346396 -0.857409
v 0.461346 0.393496 -0.885407
v 0.385712 0.440596 -0.913405
v 0.527618 0.292141 -1.011158
v 0.446249 0.348002 -1.028278
v 0.364876 0.403862 -1.045397
v 0.605359 0.173266 -1.158667
v 0.256934 0.431748 -1.183631
v 0.256934 0.431748 -1.183631
v -0.000000 0.546305 -0.982425
v 0.128468 0.405593 -1.229680
v 0.064234 0.442950 -1.164029
v -0.000000 0.480308 -1.098378
v 0.064234 0.350799 -1.326030
v -0.000000 0.396874 -1.245029
v -0.064234 0.442950 -1.164029
v -0.000000 0.296005 -1.422380
v -0.064234 0.350799 -1.326030
v -0.128468 0.405593 -1.229680
v -0.000000 0.177698 -1.630430
v -0.256935 0.431748 -1.183631
v -0.256935 0.431748 -1.183631
v -0.363216 0.543644 -0.699174
v -0.364876 0.403862 -1.045397
v -0.385712 0.440596 -0.913405
v -0.406547 0.477330 -0.781412
v -0.446247 0.348002 -1.028278
v -0.461346 0.393496 -0.885407
v -0.476447 0.438991 -0.742535
v -0.527618 0.292141 -1.011158
v -0.536982 0.346396 -0.857409
v -0.546347 0.400651 -0.703659
v -0.605359 0.173266 -1.158667
v -0.619877 0.425327 -0.500154
v -0.256935 0.409825 1.150040
v -0.000000 0.528141 0.951022
v -0.128468 0.382809 1.195590
v -0.064234 0.421394 1.130652
v -0.000000 0.459978 1.065714
v -0.064234 0.326215 1.290893
v -0.000000 0.373804 1.210773
v 0.064234 0.421394 1.130652
v -0.000000 0.269620 1.386197
v 0.064234 0.326215 1.290893
v 0.128468 0.382809 1.195590
v -0.000000 0.147426 1.591987
v 0.256934 0.409825 1.150040
v -0.327607 0.076005 -1.508600
v -0.327607 0.152914 -1.507877
v -0.475523 0.097808 -1.359506
v -0.475523 0.151515 -1.359001
v -0.475523 0.097808 -1.359506
v -0.475523 0.151515 -1.359001
v -0.605359 0.072727 -1.159611
v -0.605359 0.149635 -1.158889
v -0.605359 0.072727 -1.159611
v -0.605359 0.149635 -1.158889
v -0.711641 0.093633 -0.915133
v -0.711641 0.147341 -0.914629
v -0.711641 0.093633 -0.915133
v -0.711641 0.147341 -0.914629
v -0.790804 0.067813 -0.636611
v -0.790804 0.144722 -0.635889
v -0.790804 0.067813 -0.636611
v -0.790804 0.144722 -0.635889
v -0.839560 0.088175 -0.334129
v -0.839560 0.141883 -0.333625
v -0.839560 0.088175 -0.334129
v -0.839560 0.141883 -0.333625
v -0.855995 0.062023 -0.020171
v -0.855995 0.138931 -0.019448
v -0.855995 0.062023 -0.020171
v -0.855995 0.138931 -0.019448
v -0.839560 0.082272 0.294233
v -0.839560 0.135980 0.294738
v -0.839560 0.082272 0.294233
v -0.839560 0.135980 0.294738
v -0.790804 0.056231 0.596279
v -0.790804 0.133140 0.597002
v -0.790804 0.056231 0.596279
v -0.790804 0.133140 0.597002
v -0.711641 0.076814 0.875237
v -0.711641 0.130522 0.875742
v -0.711641 0.076814 0.875237
v -0.711641 0.130522 0.875742
v -0.605359 0.051318 1.119279
v -0.605359 0.128227 1.120002
v -0.605359 0.051318 1.119279
v -0.605359 0.128227 1.120002
v -0.475523 0.072640 1.319610
v -0.475523 0.126347 1.320115
v -0.475523 0.072640 1.319610
v -0.475523 0.126347 1.320115
v -0.327607 0.048040 1.468268
v -0.327607 0.124948 1.468991
v -0.327607 0.048040 1.468268
v -0.327607 0.124948 1.468991
v -0.167090 0.070379 1.560325
v -0.167090 0.124086 1.560830
v -0.167090 0.124086 1.560830
v -0.000000 0.123795 1.591766
v -0.167090 0.070379 1.560325
v -0.000000 0.046886 1.591043
v -0.000000 0.046886 1.591043
v -0.000000 0.123795 1.591766
v 0.167090 0.070379 1.560325
v 0.167090 0.124086 1.560830
v 0.167090 0.070379 1.560325
v 0.167090 0.124086 1.560830
v 0.327607 0.048040 1.468268
v 0.327607 0.124948 1.468991
v 0.327607 0.048040 1.468268
v 0.327607 0.124948 1.468991
v 0.475523 0.072640 1.319610
v 0.475523 0.126347 1.320115
v 0.475523 0.072640 1.319610
v 0.475523 0.126347 1.320115
v 0.605359 0.051318 1.119279
v 0.605359 0.128227 1.120002
v 0.605359 0.051318 1.119279
v 0.605359 0.128227 1.120002
v 0.711641 0.076814 0.875237
v 0.711641 0.130522 0.875742
v 0.711641 0.076814 0.875237
v 0.711641 0.130522 0.875742
v 0.790804 0.056231 0.596279
v 0.790804 0.133140 0.597002
v 0.790804 0.056231 0.596279
v 0.790804 0.133140 0.597002
v 0.839560 0.082272 0.294233
v 0.839560 0.135980 0.294738
v 0.839560 0.082272 0.294233
v 0.839560 0.135980 0.294738
v 0.855995 0.062023 -0.020171
v 0.855995 0.138931 -0.019448
v 0.855995 0.062023 -0.020171
v 0.855995 0.138931 -0.019448
v 0.839560 0.088175 -0.334129
v 0.839560 0.141883 -0.333625
v 0.839560 0.088175 -0.334129
v 0.839560 0.141883 -0.333625
v 0.790804 0.067813 -0.636611
v 0.790804 0.144722 -0.635889
v 0.790804 0.067813 -0.636611
v 0.790804 0.144722 -0.635889
v 0.711641 0.093633 -0.915133
v 0.711641 0.147341 -0.914629
v 0.711641 0.093633 -0.915133
v 0.711641 0.147341 -0.914629
v 0.605359 0.072727 -1.159611
v 0.605359 0.149635 -1.158889
v 0.605359 0.072727 -1.159611
v 0.605359 0.149635 -1.158889
v 0.475523 0.097808 -1.359506
v 0.475523 0.151515 -1.359001
v 0.475523 0.097808 -1.359506
v 0.475523 0.151515 -1.359001
v 0.327607 0.076005 -1.508600
v 0.327607 0.152914 -1.507877
v 0.327607 0.076005 -1.508600
v 0.327607 0.152914 -1.507877
v 0.167090 0.100069 -1.600221
v 0.167090 0.153776 -1.599716
v 0.167090 0.100069 -1.600221
v 0.167090 0.153776 -1.599716
v -0.000000 0.077158 -1.631374
v -0.000000 0.154067 -1.630652
v -0.000000 0.077158 -1.631374
v -0.000000 0.154067 -1.630652
v -0.167090 0.100069 -1.600221
v -0.167090 0.153776 -1.599716
v -0.167090 0.100069 -1.600221
v -0.167090 0.153776 -1.599716
v -0.327607 0.076005 -1.508600
v -0.327607 0.152914 -1.507877
vn -0.6505 -0.6733 -0.3514
vn -0.6503 -0.6734 -0.3516
vn -0.6506 -0.6733 -0.3513
vn -0.6504 -0.6734 -0.3515
vn -0.6502 -0.6735 -0.3517
vn -0.6506 -0.6732 -0.3514
vn -0.6504 -0.6734 -0.3514
vn -0.6502 -0.6734 -0.3516
vn -0.6503 -0.6735 -0.3515
vn -0.6508 -0.6732 -0.3511
vn -0.6507 -0.6732 -0.3512
vn -0.6501 -0.6735 -0.3518
vn -0.6502 -0.6734 -0.3518
vn -0.6503 -0.6734 -0.3517
vn -0.6507 -0.6732 -0.3513
vn -0.8054 -0.5927 -0.0054
vn -0.8054 -0.5927 -0.0057
vn -0.8054 -0.5927 -0.0052
vn -0.8054 -0.5927 -0.0056
vn -0.8054 -0.5927 -0.0059
vn -0.8054 -0.5927 -0.0053
vn -0.8054 -0.5927 -0.0058
vn -0.8054 -0.5928 -0.0054
vn -0.8054 -0.5928 -0.0057
vn -0.8054 -0.5927 -0.0050
vn -0.8054 -0.5927 -0.0051
vn -0.8054 -0.5927 -0.0060
vn -0.8054 -0.5926 -0.0062
vn -0.8055 -0.5926 -0.0060
vn -0.8055 -0.5925 -0.0058
vn -0.8055 -0.5926 -0.0053
vn -0.8055 -0.5926 -0.0051
vn -0.6503 -0.6799 0.3389
vn -0.6505 -0.6798 0.3387
vn -0.6502 -0.6800 0.3390
vn -0.6504 -0.6798 0.3388
vn -0.6504 -0.6799 0.3388
vn -0.6506 -0.6797 0.3386
vn -0.6503 -0.6799 0.3388
vn -0.6505 -0.6798 0.3386
vn -0.6504 -0.6799 0.3387
vn -0.6501 -0.6800 0.3391
vn -0.6502 -0.6800 0.3389
vn -0.6501 -0.6800 0.3390
vn -0.6507 -0.6797 0.3385
vn -0.6508 -0.6797 0.3384
vn -0.6506 -0.6797 0.3387
vn -0.6503 -0.6798 0.3390
vn -0.6502 -0.6799 0.3391
vn 0.0002 -0.8163 0.5777
vn -0.0002 -0.8163 0.5777
vn 0.0005 -0.8163 0.5777
vn -0.0000 -0.8163 0.5776
vn -0.0005 -0.8163 0.5777
vn 0.0003 -0.8162 0.5777
vn -0.0003 -0.8162 0.5777
vn -0.0004 -0.8163 0.5776
vn 0.0008 -0.8163 0.5777
vn 0.0004 -0.8163 0.5776
vn 0.0007 -0.8163 0.5776
vn -0.0007 -0.8163 0.5776
vn -0.0008 -0.8163 0.5777
vn -0.0007 -0.8163 0.5777
vn -0.0004 -0.8162 0.5777
vn 0.0004 -0.8162 0.5777
vn 0.0007 -0.8163 0.5777
vn 0.6503 -0.6734 -0.3516
vn 0.6505 -0.6734 -0.3514
vn 0.6501 -0.6735 -0.3517
vn 0.6504 -0.6734 -0.3515
vn 0.6506 -0.6733 -0.3513
vn 0.6506 -0.6733 -0.3514
vn 0.6503 -0.6735 -0.3515
vn 0.6504 -0.6734 -0.3514
vn 0.6501 -0.6735 -0.3518
vn 0.6502 -0.6735 -0.3516
vn 0.6507 -0.6733 -0.3512
vn 0.6508 -0.6732 -0.3511
vn 0.6507 -0.6732 -0.3512
vn 0.6507 -0.6732 -0.3513
vn 0.6502 -0.6734 -0.3517
vn 0.6502 -0.6735 -0.3518
vn 0.8054 -0.5927 -0.0057
vn 0.8054 -0.5927 -0.0054
vn 0.8054 -0.5927 -0.0059
vn 0.8054 -0.5927 -0.0056
vn 0.8054 -0.5927 -0.0052
vn 0.8054 -0.5927 -0.0058
vn 0.8054 -0.5928 -0.0057
vn 0.8054 -0.5928 -0.0053
vn 0.8053 -0.5928 -0.0054
vn 0.8054 -0.5927 -0.0062
vn 0.8054 -0.5927 -0.0061
vn 0.8054 -0.5927 -0.0051
vn 0.8054 -0.5927 -0.0050
vn 0.8055 -0.5926 -0.0051
vn 0.8055 -0.5925 -0.0053
vn 0.8055 -0.5925 -0.0058
vn 0.8055 -0.5926 -0.0061
vn -0.0002 -0.8053 -0.5929
vn 0.0002 -0.8053 -0.5929
vn -0.0005 -0.8053 -0.5929
vn -0.0000 -0.8053 -0.5929
vn 0.0005 -0.8053 -0.5929
vn -0.0003 -0.8052 -0.5930
vn 0.0003 -0.8053 -0.5929
vn 0.0004 -0.8053 -0.5929
vn -0.0008 -0.8053 -0.5929
vn -0.0004 -0.8053 -0.5929
vn -0.0007 -0.8053 -0.5929
vn 0.0007 -0.8053 -0.5929
vn 0.0008 -0.8053 -0.5929
vn 0.0007 -0.8052 -0.5929
vn 0.0005 -0.8052 -0.5930
vn -0.0005 -0.8052 -0.5930
vn -0.0007 -0.8052 -0.5929
vn -0.5561 -0.6992 -0.4493
vn -0.5562 -0.6991 -0.4493
vn -0.5562 -0.6992 -0.4492
vn -0.5562 -0.6991 -0.4492
vn -0.5563 -0.6991 -0.4492
vn -0.5561 -0.6992 -0.4494
vn -0.5562 -0.6992 -0.4493
vn -0.5563 -0.6992 -0.4491
vn -0.5560 -0.6993 -0.4493
vn -0.5559 -0.6994 -0.4493
vn -0.5564 -0.6991 -0.4491
vn -0.2175 -0.7784 -0.5889
vn -0.2177 -0.7783 -0.5890
vn -0.2179 -0.7785 -0.5886
vn -0.2179 -0.7783 -0.5889
vn -0.2180 -0.7782 -0.5890
vn -0.2184 -0.7783 -0.5887
vn -0.2182 -0.7782 -0.5889
vn -0.2166 -0.7786 -0.5890
vn -0.2175 -0.7783 -0.5890
vn -0.2171 -0.7784 -0.5890
vn -0.2189 -0.7787 -0.5879
vn -0.2166 -0.7787 -0.5889
vn -0.2165 -0.7790 -0.5885
vn -0.2178 -0.7782 -0.5890
vn -0.2184 -0.7781 -0.5889
vn -0.2188 -0.7781 -0.5888
vn -0.2192 -0.7782 -0.5885
vn -0.2192 -0.7783 -0.5884
vn 0.2184 -0.7783 -0.5887
vn 0.2182 -0.7782 -0.5889
vn 0.2179 -0.7785 -0.5886
vn 0.2179 -0.7783 -0.5889
vn 0.2180 -0.7782 -0.5889
vn 0.2175 -0.7784 -0.5889
vn 0.2177 -0.7783 -0.5889
vn 0.2192 -0.7782 -0.5885
vn 0.2184 -0.7782 -0.5889
vn 0.2188 -0.7781 -0.5888
vn 0.2166 -0.7789 -0.5885
vn 0.2192 -0.7783 -0.5884
vn 0.2189 -0.7787 -0.5879
vn 0.2178 -0.7782 -0.5891
vn 0.2175 -0.7783 -0.5890
vn 0.2171 -0.7784 -0.5891
vn 0.2166 -0.7785 -0.5890
vn 0.2166 -0.7787 -0.5889
vn 0.6505 -0.6799 0.3387
vn 0.6503 -0.6799 0.3389
vn 0.6506 -0.6797 0.3386
vn 0.6504 -0.6799 0.3388
vn 0.6502 -0.6800 0.3390
vn 0.6505 -0.6798 0.3387
vn 0.6504 -0.6799 0.3387
vn 0.6502 -0.6799 0.3389
vn 0.6503 -0.6799 0.3388
vn 0.6508 -0.6797 0.3384
vn 0.6506 -0.6798 0.3386
vn 0.6507 -0.6797 0.3385
vn 0.6501 -0.6800 0.3390
vn 0.6501 -0.6800 0.3391
vn 0.6502 -0.6799 0.3391
vn 0.6503 -0.6798 0.3390
vn 0.5562 -0.6992 -0.4492
vn 0.5562 -0.6991 -0.4492
vn 0.5562 -0.6991 -0.4493
vn 0.5561 -0.6992 -0.4493
vn 0.5562 -0.6992 -0.4493
vn 0.5564 -0.6991 -0.4491
vn 0.5563 -0.6991 -0.4492
vn 0.5559 -0.6994 -0.4492
vn 0.5563 -0.6992 -0.4491
vn 0.5562 -0.6993 -0.4490
vn 0.5561 -0.6992 -0.4494
vn 0.5560 -0.6993 -0.4493
vn 0.7376 -0.6201 -0.2673
vn 0.7375 -0.6202 -0.2673
vn 0.7375 -0.6201 -0.2673
vn 0.7375 -0.6202 -0.2674
vn 0.7375 -0.6201 -0.2674
vn 0.7376 -0.6201 -0.2672
vn 0.7373 -0.6204 -0.2675
vn 0.7376 -0.6201 -0.2671
vn 0.7375 -0.6203 -0.2671
vn 0.7375 -0.6202 -0.2675
vn 0.7374 -0.6202 -0.2675
vn 0.7373 -0.6203 -0.2675
vn 0.8100 -0.5793 -0.0910
vn 0.8101 -0.5792 -0.0910
vn 0.8099 -0.5794 -0.0911
vn 0.8101 -0.5792 -0.0911
vn 0.8100 -0.5793 -0.0913
vn 0.8101 -0.5792 -0.0912
vn 0.8101 -0.5793 -0.0907
vn 0.8101 -0.5792 -0.0908
vn 0.8096 -0.5798 -0.0915
vn 0.8100 -0.5794 -0.0907
vn 0.8097 -0.5797 -0.0907
vn 0.8101 -0.5791 -0.0911
vn 0.8101 -0.5791 -0.0912
vn 0.8101 -0.5792 -0.0913
vn 0.8100 -0.5792 -0.0914
vn 0.8100 -0.5793 -0.0915
vn 0.8099 -0.5794 -0.0915
vn -0.7375 -0.6202 -0.2674
vn -0.7375 -0.6201 -0.2674
vn -0.7375 -0.6202 -0.2673
vn -0.7375 -0.6201 -0.2673
vn -0.7376 -0.6201 -0.2673
vn -0.7374 -0.6202 -0.2675
vn -0.7375 -0.6202 -0.2675
vn -0.7375 -0.6203 -0.2671
vn -0.7374 -0.6203 -0.2675
vn -0.7373 -0.6204 -0.2675
vn -0.7376 -0.6201 -0.2674
vn -0.7376 -0.6201 -0.2672
vn -0.7376 -0.6202 -0.2671
vn -0.8100 -0.5793 -0.0913
vn -0.8101 -0.5792 -0.0912
vn -0.8099 -0.5794 -0.0911
vn -0.8100 -0.5792 -0.0911
vn -0.8101 -0.5792 -0.0911
vn -0.8100 -0.5793 -0.0910
vn -0.8101 -0.5792 -0.0910
vn -0.8100 -0.5793 -0.0915
vn -0.8101 -0.5792 -0.0913
vn -0.8100 -0.5792 -0.0914
vn -0.8097 -0.5797 -0.0907
vn -0.8099 -0.5794 -0.0915
vn -0.8096 -0.5798 -0.0915
vn -0.8101 -0.5791 -0.0912
vn -0.8101 -0.5791 -0.0911
vn -0.8101 -0.5792 -0.0908
vn -0.8101 -0.5793 -0.0907
vn -0.8100 -0.5794 -0.0907
vn -0.8100 -0.5809 0.0801
vn -0.8101 -0.5808 0.0801
vn -0.8099 -0.5810 0.0802
vn -0.8100 -0.5809 0.0802
vn -0.8101 -0.5808 0.0802
vn -0.8100 -0.5809 0.0804
vn -0.8101 -0.5808 0.0803
vn -0.8101 -0.5808 0.0798
vn -0.8101 -0.5808 0.0799
vn -0.8096 -0.5814 0.0806
vn -0.8100 -0.5810 0.0798
vn -0.8097 -0.5814 0.0798
vn -0.8101 -0.5807 0.0803
vn -0.8101 -0.5808 0.0804
vn -0.8100 -0.5808 0.0805
vn -0.8100 -0.5809 0.0806
vn -0.8099 -0.5811 0.0806
vn -0.7375 -0.6251 0.2556
vn -0.7376 -0.6250 0.2556
vn -0.7375 -0.6251 0.2557
vn -0.7376 -0.6250 0.2555
vn -0.7372 -0.6254 0.2558
vn -0.7376 -0.6251 0.2554
vn -0.7375 -0.6252 0.2554
vn -0.7375 -0.6250 0.2557
vn -0.7375 -0.6251 0.2558
vn -0.7374 -0.6252 0.2558
vn -0.7373 -0.6252 0.2558
vn -0.5563 -0.7075 0.4360
vn -0.5563 -0.7074 0.4360
vn -0.5562 -0.7075 0.4360
vn -0.5561 -0.7075 0.4361
vn -0.5562 -0.7075 0.4361
vn -0.5564 -0.7074 0.4359
vn -0.5563 -0.7074 0.4359
vn -0.5560 -0.7076 0.4361
vn -0.5563 -0.7075 0.4359
vn -0.5563 -0.7075 0.4358
vn -0.5562 -0.7074 0.4361
vn -0.2184 -0.7892 0.5740
vn -0.2182 -0.7891 0.5741
vn -0.2178 -0.7894 0.5739
vn -0.2179 -0.7892 0.5741
vn -0.2180 -0.7892 0.5742
vn -0.2180 -0.7891 0.5742
vn -0.2175 -0.7893 0.5741
vn -0.2177 -0.7892 0.5742
vn -0.2193 -0.7891 0.5738
vn -0.2184 -0.7891 0.5741
vn -0.2188 -0.7890 0.5740
vn -0.2165 -0.7899 0.5737
vn -0.2192 -0.7892 0.5737
vn -0.2189 -0.7896 0.5733
vn -0.2182 -0.7892 0.5741
vn -0.2178 -0.7892 0.5743
vn -0.2175 -0.7892 0.5743
vn -0.2171 -0.7893 0.5743
vn -0.2166 -0.7895 0.5743
vn -0.2166 -0.7896 0.5741
vn 0.2175 -0.7893 0.5741
vn 0.2177 -0.7892 0.5742
vn 0.2178 -0.7894 0.5739
vn 0.2179 -0.7892 0.5741
vn 0.2180 -0.7891 0.5742
vn 0.2184 -0.7892 0.5740
vn 0.2182 -0.7891 0.5741
vn 0.2166 -0.7894 0.5744
vn 0.2175 -0.7892 0.5743
vn 0.2171 -0.7893 0.5743
vn 0.2189 -0.7896 0.5733
vn 0.2166 -0.7896 0.5741
vn 0.2166 -0.7899 0.5737
vn 0.2178 -0.7892 0.5743
vn 0.2182 -0.7891 0.5742
vn 0.2184 -0.7891 0.5741
vn 0.2188 -0.7890 0.5740
vn 0.2193 -0.7891 0.5738
vn 0.2192 -0.7892 0.5737
vn 0.5561 -0.7075 0.4361
vn 0.5562 -0.7075 0.4361
vn 0.5562 -0.7075 0.4360
vn 0.5562 -0.7074 0.4360
vn 0.5560 -0.7076 0.4361
vn 0.5563 -0.7076 0.4358
vn 0.5562 -0.7074 0.4361
vn 0.5563 -0.7075 0.4360
vn 0.5563 -0.7074 0.4360
vn 0.5564 -0.7074 0.4359
vn 0.5563 -0.7075 0.4359
vn 0.7375 -0.6251 0.2557
vn 0.7375 -0.6252 0.2556
vn 0.7375 -0.6250 0.2556
vn 0.7375 -0.6251 0.2556
vn 0.7376 -0.6250 0.2557
vn 0.7376 -0.6250 0.2556
vn 0.7373 -0.6253 0.2558
vn 0.7375 -0.6251 0.2558
vn 0.7375 -0.6252 0.2554
vn 0.7374 -0.6252 0.2558
vn 0.7375 -0.6250 0.2557
vn 0.7376 -0.6250 0.2555
vn 0.7376 -0.6251 0.2554
vn 0.8100 -0.5809 0.0804
vn 0.8101 -0.5808 0.0803
vn 0.8099 -0.5810 0.0802
vn 0.8101 -0.5808 0.0802
vn 0.8100 -0.5809 0.0801
vn 0.8101 -0.5808 0.0801
vn 0.8100 -0.5809 0.0806
vn 0.8101 -0.5808 0.0804
vn 0.8100 -0.5808 0.0805
vn 0.8097 -0.5813 0.0798
vn 0.8099 -0.5811 0.0806
vn 0.8096 -0.5814 0.0806
vn 0.8101 -0.5807 0.0803
vn 0.8101 -0.5807 0.0802
vn 0.8101 -0.5808 0.0799
vn 0.8101 -0.5809 0.0798
vn 0.8100 -0.5810 0.0798
vn -0.5604 0.7021 -0.4394
vn -0.5561 0.7076 -0.4360
vn -0.8122 0.5762 0.0913
vn -0.8099 0.5794 0.0911
vn -0.8122 0.5778 -0.0805
vn -0.8099 0.5810 -0.0802
vn -0.5604 0.6937 0.4525
vn -0.5561 0.6992 0.4492
vn 0.5604 0.6937 0.4525
vn 0.5561 0.6992 0.4492
vn 0.8122 0.5777 -0.0805
vn 0.8099 0.5810 -0.0802
vn 0.8122 0.5761 0.0913
vn 0.8099 0.5794 0.0911
vn 0.5604 0.7020 -0.4394
vn 0.5561 0.7076 -0.4360
vn -0.2127 0.9408 -0.2640
vn -0.4777 0.8732 -0.0969
vn -0.4777 0.8712 0.1133
vn -0.2127 0.9357 0.2816
vn 0.2127 0.9357 0.2816
vn 0.4777 0.8712 0.1133
vn 0.4777 0.8732 -0.0969
vn 0.2127 0.9408 -0.2640
vn 0.2186 0.7876 -0.5760
vn 0.2179 0.7893 -0.5741
vn 0.7415 0.6197 -0.2571
vn 0.7374 0.6253 -0.2556
vn 0.7415 0.6147 0.2687
vn 0.7374 0.6203 0.2673
vn 0.2186 0.7767 0.5907
vn 0.2179 0.7783 0.5888
vn -0.2186 0.7767 0.5907
vn -0.2179 0.7783 0.5888
vn -0.7415 0.6147 0.2687
vn -0.7374 0.6203 0.2673
vn -0.7415 0.6197 -0.2571
vn -0.7374 0.6253 -0.2556
vn -0.2187 0.7876 -0.5760
vn -0.2179 0.7893 -0.5741
vn -0.1821 -0.0092 0.9832
vn 0.1821 -0.0092 0.9832
vn 0.4966 -0.0082 0.8679
vn 0.7094 -0.0066 0.7048
vn 0.8389 -0.0051 0.5442
vn 0.9170 -0.0037 0.3990
vn 0.9620 -0.0026 0.2732
vn 0.9872 -0.0015 0.1592
vn 0.9986 -0.0005 0.0522
vn 0.9986 0.0005 -0.0522
vn 0.9872 0.0015 -0.1592
vn 0.9620 0.0026 -0.2732
vn 0.9170 0.0037 -0.3990
vn 0.8389 0.0051 -0.5443
vn 0.7094 0.0066 -0.7048
vn 0.4966 0.0082 -0.8679
vn 0.1821 0.0092 -0.9832
vn -0.1821 0.0092 -0.9832
vn -0.4966 0.0082 -0.8679
vn -0.7094 0.0066 -0.7048
vn -0.8389 0.0051 -0.5443
vn -0.9170 0.0037 -0.3990
vn -0.9620 0.0026 -0.2732
vn -0.9872 0.0015 -0.1592
vn -0.9986 0.0005 -0.0522
vn -0.9986 -0.0005 0.0522
vn -0.9872 -0.0015 0.1592
vn -0.9620 -0.0026 0.2732
vn -0.9170 -0.0037 0.3990
vn -0.8389 -0.0051 0.5442
vn -0.7094 -0.0066 0.7048
vn -0.4966 -0.0082 0.8679
vn -0.0000 1.0000 0.0094
vn -0.7383 0.6745 0.0063
vn -0.7381 0.6746 0.0063
vn -0.7383 0.6744 0.0063
vn -0.7382 0.6746 0.0063
vn -0.7381 0.6747 0.0063
vn -0.7382 0.6745 0.0064
vn -0.7381 0.6746 0.0064
vn -0.7383 0.6744 0.0062
vn -0.7381 0.6746 0.0062
vn -0.7385 0.6743 0.0064
vn -0.7384 0.6743 0.0063
vn -0.7380 0.6747 0.0063
vn -0.7380 0.6747 0.0064
vn -0.7381 0.6747 0.0064
vn -0.7381 0.6746 0.0065
vn -0.7383 0.6744 0.0065
vn -0.5820 0.7492 0.3161
vn -0.5820 0.7493 0.3160
vn -0.5821 0.7491 0.3161
vn -0.5820 0.7493 0.3161
vn -0.5819 0.7493 0.3160
vn -0.5819 0.7493 0.3161
vn -0.5821 0.7492 0.3160
vn -0.5821 0.7491 0.3162
vn -0.5821 0.7492 0.3161
vn -0.5822 0.7491 0.3161
vn -0.5819 0.7494 0.3161
vn -0.5818 0.7494 0.3161
vn -0.5819 0.7493 0.3162
vn -0.5820 0.7492 0.3162
vn 0.5820 0.7492 0.3161
vn 0.5819 0.7493 0.3161
vn 0.5821 0.7492 0.3161
vn 0.5820 0.7493 0.3161
vn 0.5820 0.7493 0.3160
vn 0.5819 0.7493 0.3162
vn 0.5819 0.7494 0.3161
vn 0.5818 0.7494 0.3161
vn 0.5822 0.7491 0.3161
vn 0.5820 0.7492 0.3162
vn 0.5821 0.7491 0.3162
vn 0.5819 0.7493 0.3160
vn 0.5821 0.7492 0.3160
vn 0.5821 0.7491 0.3161
vn 0.7383 0.6745 0.0064
vn 0.7381 0.6746 0.0064
vn 0.7383 0.6744 0.0063
vn 0.7382 0.6746 0.0063
vn 0.7381 0.6747 0.0063
vn 0.7383 0.6745 0.0063
vn 0.7381 0.6746 0.0063
vn 0.7383 0.6744 0.0065
vn 0.7381 0.6747 0.0064
vn 0.7381 0.6747 0.0065
vn 0.7384 0.6743 0.0063
vn 0.7385 0.6743 0.0064
vn 0.7380 0.6747 0.0064
vn 0.7380 0.6747 0.0063
vn 0.7381 0.6746 0.0062
vn 0.7382 0.6745 0.0062
vn 0.7383 0.6744 0.0062
vn 0.5820 0.7550 -0.3019
vn 0.5820 0.7551 -0.3019
vn 0.5821 0.7550 -0.3020
vn 0.5819 0.7551 -0.3019
vn 0.5820 0.7551 -0.3020
vn 0.5819 0.7551 -0.3020
vn 0.5822 0.7550 -0.3019
vn 0.5821 0.7550 -0.3021
vn 0.5821 0.7550 -0.3019
vn 0.5822 0.7549 -0.3020
vn 0.5819 0.7552 -0.3019
vn 0.5818 0.7552 -0.3019
vn 0.5819 0.7552 -0.3020
vn 0.5820 0.7550 -0.3021
vn 0.0001 0.8692 -0.4945
vn 0.0001 0.8693 -0.4944
vn -0.0000 0.8691 -0.4946
vn -0.0000 0.8692 -0.4944
vn -0.0000 0.8693 -0.4944
vn -0.0001 0.8692 -0.4945
vn -0.0001 0.8692 -0.4944
vn 0.0003 0.8692 -0.4945
vn 0.0001 0.8693 -0.4943
vn 0.0002 0.8692 -0.4944
vn -0.0001 0.8691 -0.4946
vn 0.0002 0.8691 -0.4946
vn 0.0001 0.8691 -0.4947
vn -0.0001 0.8693 -0.4943
vn -0.0002 0.8692 -0.4944
vn -0.0003 0.8692 -0.4945
vn -0.0002 0.8691 -0.4946
vn -0.5820 0.7551 -0.3020
vn -0.5819 0.7551 -0.3019
vn -0.5821 0.7550 -0.3020
vn -0.5820 0.7551 -0.3019
vn -0.5820 0.7550 -0.3019
vn -0.5819 0.7551 -0.3021
vn -0.5819 0.7552 -0.3020
vn -0.5819 0.7551 -0.3020
vn -0.5822 0.7549 -0.3020
vn -0.5820 0.7550 -0.3021
vn -0.5821 0.7549 -0.3021
vn -0.5818 0.7552 -0.3019
vn -0.5819 0.7552 -0.3019
vn -0.5821 0.7550 -0.3019
vn -0.0001 0.8597 0.5107
vn -0.0001 0.8598 0.5106
vn -0.0000 0.8597 0.5108
vn -0.0000 0.8598 0.5107
vn -0.0000 0.8598 0.5106
vn 0.0001 0.8597 0.5107
vn 0.0001 0.8598 0.5106
vn -0.0003 0.8597 0.5107
vn -0.0002 0.8598 0.5106
vn 0.0001 0.8596 0.5110
vn -0.0002 0.8597 0.5108
vn -0.0001 0.8597 0.5109
vn 0.0002 0.8598 0.5106
vn 0.0003 0.8597 0.5107
vn 0.0002 0.8597 0.5108
vn -0.8389 -0.0051 0.5443
vn 0.8389 -0.0051 0.5443
vn 0.9170 0.0037 -0.3989
vt 0.566763 0.342617
vt 0.566763 0.376439
vt 0.603956 0.376439
vt 0.603956 0.342617
vt 0.529571 0.342617
vt 0.529571 0.376439
vt 0.566763 0.308794
vt 0.603956 0.308794
vt 0.529571 0.308794
vt 0.641149 0.410261
vt 0.641149 0.274972
vt 0.492378 0.410261
vt 0.492378 0.274972
vt 0.546881 0.940890
vt 0.546881 0.970445
vt 0.576802 0.970445
vt 0.576802 0.940890
vt 0.516960 0.940890
vt 0.516960 0.970445
vt 0.546881 0.911335
vt 0.576802 0.911335
vt 0.516960 0.911335
vt 0.606723 1.000000
vt 0.606723 0.881780
vt 0.487038 1.000000
vt 0.487038 0.881780
vt 0.073653 0.212388
vt 0.036827 0.212388
vt 0.036827 0.246576
vt 0.073653 0.246576
vt 0.073653 0.178199
vt 0.036827 0.178199
vt 0.110480 0.212388
vt 0.110480 0.246576
vt 0.110480 0.178199
vt 0.000000 0.280765
vt 0.147307 0.280765
vt 0.000000 0.144011
vt 0.147307 0.144011
vt 0.886645 0.176052
vt 0.886645 0.216754
vt 0.926980 0.216754
vt 0.926980 0.176052
vt 0.846310 0.176052
vt 0.846310 0.216754
vt 0.886645 0.135351
vt 0.926980 0.135351
vt 0.846310 0.135351
vt 0.967316 0.257455
vt 0.967316 0.094649
vt 0.805975 0.257455
vt 0.805975 0.094649
vt 0.073653 0.072005
vt 0.036827 0.072005
vt 0.036827 0.106194
vt 0.073653 0.106194
vt 0.073653 0.037817
vt 0.036827 0.037817
vt 0.110480 0.072005
vt 0.110480 0.106194
vt 0.110480 0.037817
vt 0.000000 0.140382
vt 0.147307 0.140382
vt 0.000000 0.003629
vt 0.147307 0.003629
vt 0.550274 0.594209
vt 0.550274 0.623764
vt 0.580196 0.623764
vt 0.580196 0.594209
vt 0.520353 0.594209
vt 0.520353 0.623764
vt 0.550274 0.564654
vt 0.580196 0.564654
vt 0.520353 0.564654
vt 0.610117 0.653319
vt 0.610117 0.535099
vt 0.490432 0.653319
vt 0.490432 0.535099
vt 0.886645 0.433507
vt 0.886645 0.474209
vt 0.926980 0.474209
vt 0.926980 0.433507
vt 0.846310 0.433507
vt 0.846310 0.474209
vt 0.886645 0.392806
vt 0.926980 0.392806
vt 0.846310 0.392806
vt 0.967316 0.514910
vt 0.967316 0.352104
vt 0.805975 0.514910
vt 0.805975 0.352104
vt 0.565748 0.205863
vt 0.527770 0.205863
vt 0.527770 0.239685
vt 0.565748 0.239685
vt 0.565748 0.172041
vt 0.527770 0.172041
vt 0.603726 0.205863
vt 0.603726 0.239685
vt 0.603726 0.172041
vt 0.489792 0.273507
vt 0.641704 0.273507
vt 0.489792 0.138219
vt 0.641704 0.138219
vt 0.882523 0.680766
vt 0.841821 0.680766
vt 0.841821 0.719111
vt 0.882523 0.719111
vt 0.882523 0.642422
vt 0.841821 0.642422
vt 0.923224 0.680766
vt 0.923224 0.719111
vt 0.923224 0.642422
vt 0.801120 0.757455
vt 0.963926 0.757455
vt 0.801120 0.604078
vt 0.963926 0.604078
vt 0.882523 0.923311
vt 0.882523 0.961656
vt 0.923224 0.961656
vt 0.923224 0.923311
vt 0.841821 0.923311
vt 0.841821 0.961656
vt 0.882523 0.884967
vt 0.923224 0.884967
vt 0.841821 0.884967
vt 0.963926 1.000000
vt 0.963926 0.846623
vt 0.801120 1.000000
vt 0.801120 0.846623
vt 0.223157 0.212388
vt 0.223157 0.246576
vt 0.260350 0.246576
vt 0.260350 0.212388
vt 0.185964 0.212388
vt 0.185964 0.246576
vt 0.223157 0.178199
vt 0.260350 0.178199
vt 0.185964 0.178199
vt 0.297543 0.280765
vt 0.297543 0.144011
vt 0.148771 0.280765
vt 0.148771 0.144011
vt 0.719858 0.931623
vt 0.719858 0.965812
vt 0.758202 0.965812
vt 0.758202 0.931623
vt 0.681513 0.931623
vt 0.681513 0.965812
vt 0.719858 0.897435
vt 0.758202 0.897435
vt 0.681513 0.897435
vt 0.796546 1.000000
vt 0.796546 0.863246
vt 0.643169 1.000000
vt 0.643169 0.863246
vt 0.223508 0.345513
vt 0.223508 0.376356
vt 0.260690 0.376356
vt 0.260690 0.345513
vt 0.186326 0.345513
vt 0.186326 0.376356
vt 0.223508 0.314669
vt 0.260690 0.314669
vt 0.186326 0.314669
vt 0.297872 0.407199
vt 0.297872 0.283826
vt 0.149144 0.407199
vt 0.149144 0.283826
vt 0.061687 0.473792
vt 0.061687 0.503713
vt 0.092530 0.503713
vt 0.092530 0.473792
vt 0.030843 0.473792
vt 0.030843 0.503713
vt 0.061687 0.443871
vt 0.092530 0.443871
vt 0.030843 0.443871
vt 0.123373 0.533634
vt 0.123373 0.413950
vt 0.000000 0.533634
vt 0.000000 0.413950
vt 0.373723 0.092675
vt 0.336530 0.092675
vt 0.336530 0.123518
vt 0.373723 0.123518
vt 0.373723 0.061831
vt 0.336530 0.061831
vt 0.410916 0.092675
vt 0.410916 0.123518
vt 0.410916 0.061831
vt 0.299337 0.154361
vt 0.448108 0.154361
vt 0.299337 0.030988
vt 0.448108 0.030988
vt 0.392594 0.821205
vt 0.361751 0.821205
vt 0.361751 0.850760
vt 0.392594 0.850760
vt 0.392594 0.791650
vt 0.361751 0.791650
vt 0.423438 0.821205
vt 0.423438 0.850760
vt 0.423438 0.791650
vt 0.330908 0.880315
vt 0.454281 0.880315
vt 0.330908 0.762095
vt 0.454281 0.762095
vt 0.392594 0.940890
vt 0.392594 0.970445
vt 0.423438 0.970445
vt 0.423438 0.940890
vt 0.361751 0.940890
vt 0.361751 0.970445
vt 0.392594 0.911335
vt 0.423438 0.911335
vt 0.361751 0.911335
vt 0.454281 1.000000
vt 0.454281 0.881780
vt 0.330908 1.000000
vt 0.330908 0.881780
vt 0.223508 0.471948
vt 0.223508 0.502791
vt 0.260690 0.502791
vt 0.260690 0.471948
vt 0.186326 0.471948
vt 0.186326 0.502791
vt 0.223508 0.441104
vt 0.260690 0.441104
vt 0.186326 0.441104
vt 0.297872 0.533634
vt 0.297872 0.410261
vt 0.149144 0.533634
vt 0.149144 0.410261
vt 0.565748 0.069109
vt 0.565748 0.102931
vt 0.603726 0.102931
vt 0.603726 0.069109
vt 0.527770 0.069109
vt 0.527770 0.102931
vt 0.565748 0.035287
vt 0.603726 0.035287
vt 0.527770 0.035287
vt 0.641704 0.136754
vt 0.641704 0.001465
vt 0.489792 0.136754
vt 0.489792 0.001465
vt 0.723840 0.180766
vt 0.723840 0.219111
vt 0.764175 0.219111
vt 0.764175 0.180766
vt 0.683504 0.180766
vt 0.683504 0.219111
vt 0.723840 0.142422
vt 0.764175 0.142422
vt 0.683504 0.142422
vt 0.804510 0.257455
vt 0.804510 0.104078
vt 0.643169 0.257455
vt 0.643169 0.104078
vt 0.723840 0.438221
vt 0.683504 0.438221
vt 0.683504 0.476566
vt 0.723840 0.476566
vt 0.723840 0.399877
vt 0.683504 0.399877
vt 0.764175 0.438221
vt 0.764175 0.476566
vt 0.764175 0.399877
vt 0.643169 0.514910
vt 0.804510 0.514910
vt 0.643169 0.361533
vt 0.804510 0.361533
vt 0.719858 0.689078
vt 0.681513 0.689078
vt 0.681513 0.723267
vt 0.719858 0.723267
vt 0.719858 0.654890
vt 0.681513 0.654890
vt 0.758202 0.689078
vt 0.758202 0.723267
vt 0.758202 0.654890
vt 0.643169 0.757455
vt 0.796546 0.757455
vt 0.643169 0.620701
vt 0.796546 0.620701
vt 0.566764 0.472680
vt 0.529571 0.472680
vt 0.529571 0.503157
vt 0.566764 0.503157
vt 0.566764 0.442203
vt 0.529571 0.442203
vt 0.603956 0.472680
vt 0.603956 0.503157
vt 0.603956 0.442203
vt 0.492378 0.533634
vt 0.641149 0.533634
vt 0.492378 0.411726
vt 0.641149 0.411726
vt 0.548725 0.821205
vt 0.517882 0.821205
vt 0.517882 0.850760
vt 0.548725 0.850760
vt 0.548725 0.791650
vt 0.517882 0.791650
vt 0.579569 0.821205
vt 0.579569 0.850760
vt 0.579569 0.791650
vt 0.487038 0.880315
vt 0.610412 0.880315
vt 0.487038 0.762095
vt 0.610412 0.762095
vt 0.410670 0.537864
vt 0.440485 0.565000
vt 0.440485 0.537864
vt 0.546913 0.708440
vt 0.490432 0.760631
vt 0.546913 0.760631
vt 0.079122 0.610090
vt 0.115529 0.647337
vt 0.115529 0.610090
vt 0.000000 0.687650
vt 0.036538 0.761039
vt 0.036538 0.687650
vt 0.636548 0.663402
vt 0.600141 0.700649
vt 0.636548 0.700649
vt 0.166102 0.687650
vt 0.235825 0.761039
vt 0.235825 0.687650
vt 0.480366 0.569227
vt 0.450551 0.596363
vt 0.480366 0.596363
vt 0.387389 0.666599
vt 0.330908 0.712025
vt 0.387389 0.712025
vt 0.027136 0.908817
vt 0.000000 0.938632
vt 0.027136 0.938632
vt 0.546913 0.654784
vt 0.490432 0.706975
vt 0.546913 0.706975
vt 0.079122 0.553238
vt 0.115529 0.590486
vt 0.115529 0.553238
vt 0.043343 0.687650
vt 0.079881 0.761039
vt 0.079881 0.687650
vt 0.159019 0.610090
vt 0.122612 0.647337
vt 0.159019 0.647337
vt 0.248505 0.687650
vt 0.318228 0.761039
vt 0.318228 0.687650
vt 0.480366 0.537863
vt 0.450551 0.564999
vt 0.480366 0.564999
vt 0.222582 0.614975
vt 0.166102 0.660401
vt 0.222582 0.660401
vt 0.000000 0.285683
vt 0.060565 0.345563
vt 0.060565 0.285683
vt 0.236245 0.916593
vt 0.176365 1.000000
vt 0.236245 1.000000
vt 0.299337 0.410183
vt 0.382744 0.454204
vt 0.382744 0.410183
vt 0.245629 0.616349
vt 0.306194 0.660401
vt 0.306194 0.616349
vt 0.299337 0.473754
vt 0.359902 0.533634
vt 0.359902 0.473754
vt 0.313516 0.916593
vt 0.253637 1.000000
vt 0.313516 1.000000
vt 0.064939 0.360097
vt 0.147679 0.404118
vt 0.147679 0.360097
vt 0.245629 0.552966
vt 0.306194 0.597018
vt 0.306194 0.552966
vt 0.630759 0.707038
vt 0.605863 0.730640
vt 0.630759 0.730640
vt 0.410670 0.603809
vt 0.478159 0.651595
vt 0.478159 0.603809
vt 0.199567 0.563326
vt 0.232052 0.598109
vt 0.232052 0.563326
vt 0.153633 0.680197
vt 0.086686 0.761039
vt 0.153633 0.761039
vt 0.032485 0.849235
vt 0.000000 0.884018
vt 0.032485 0.884018
vt 0.066947 0.787504
vt 0.000000 0.824042
vt 0.066947 0.824042
vt 0.415249 0.696899
vt 0.440144 0.720501
vt 0.440144 0.696899
vt 0.224151 0.777906
vt 0.176365 0.823331
vt 0.224151 0.823331
vt 0.440144 0.737029
vt 0.415249 0.760631
vt 0.440144 0.760631
vt 0.330908 0.544397
vt 0.398397 0.592183
vt 0.398397 0.544397
vt 0.557184 0.725848
vt 0.589670 0.760631
vt 0.589670 0.725848
vt 0.066947 0.566495
vt 0.000000 0.647337
vt 0.066947 0.647337
vt 0.075681 0.849235
vt 0.043196 0.884018
vt 0.075681 0.884018
vt 0.397855 0.724092
vt 0.330908 0.760631
vt 0.397855 0.760631
vt 0.605863 0.737029
vt 0.630759 0.760631
vt 0.630759 0.737029
vt 0.224151 0.840198
vt 0.176365 0.885624
vt 0.224151 0.885624
vt 0.189703 0.574600
vt 0.166102 0.598109
vt 0.189703 0.598109
vt 0.000000 0.997906
vt 0.023509 1.000000
vt 0.023509 0.997906
vt 0.452840 0.655475
vt 0.477648 0.680370
vt 0.477648 0.655475
vt 0.000000 0.982564
vt 0.027055 0.984658
vt 0.027055 0.982564
vt 0.086120 0.914175
vt 0.115861 0.943990
vt 0.115861 0.914175
vt 0.000000 0.967222
vt 0.032418 0.969316
vt 0.032418 0.967222
vt 0.481395 0.685781
vt 0.446612 0.720501
vt 0.481395 0.720501
vt 0.000000 0.948045
vt 0.036347 0.950139
vt 0.036347 0.948045
vt 0.122150 0.553238
vt 0.159339 0.590486
vt 0.159339 0.553238
vt 0.000000 0.944210
vt 0.037188 0.946303
vt 0.037188 0.944210
vt 0.557184 0.664242
vt 0.593531 0.700649
vt 0.593531 0.664242
vt 0.000000 0.959551
vt 0.034720 0.961645
vt 0.034720 0.959551
vt 0.241939 0.786594
vt 0.274356 0.819079
vt 0.274356 0.786594
vt 0.000000 0.971058
vt 0.029741 0.973152
vt 0.029741 0.971058
vt 0.063474 0.347786
vt 0.037544 0.374841
vt 0.063474 0.374841
vt 0.000000 0.990235
vt 0.024807 0.992329
vt 0.024807 0.990235
vt 0.189703 0.542363
vt 0.166102 0.565871
vt 0.189703 0.565871
vt 0.000000 0.994071
vt 0.023509 0.996165
vt 0.023509 0.994071
vt 0.415249 0.655475
vt 0.440056 0.680370
vt 0.440056 0.655475
vt 0.000000 0.978729
vt 0.027055 0.980823
vt 0.027055 0.978729
vt 0.129277 0.970185
vt 0.159018 1.000000
vt 0.159018 0.970185
vt 0.000000 0.963387
vt 0.032418 0.965481
vt 0.032418 0.963387
vt 0.481395 0.725911
vt 0.446612 0.760631
vt 0.481395 0.760631
vt 0.000000 0.951880
vt 0.036347 0.953974
vt 0.036347 0.951880
vt 0.000000 0.366871
vt 0.036079 0.404118
vt 0.036079 0.366871
vt 0.000000 0.940374
vt 0.037188 0.942468
vt 0.037188 0.940374
vt 0.365090 0.615188
vt 0.401437 0.651595
vt 0.401437 0.615188
vt 0.000000 0.955716
vt 0.034720 0.957810
vt 0.034720 0.955716
vt 0.286423 0.786594
vt 0.318841 0.819079
vt 0.318841 0.786594
vt 0.000000 0.974893
vt 0.029741 0.976987
vt 0.029741 0.974893
vt 0.063474 0.377063
vt 0.037544 0.404118
vt 0.063474 0.404118
vt 0.000000 0.986400
vt 0.024807 0.988494
vt 0.024807 0.986400
vt 0.395857 0.300583
vt 0.395857 0.395811
vt 0.490913 0.395811
vt 0.490913 0.300583
vt 0.299337 0.300583
vt 0.299337 0.395811
vt 0.394393 0.395811
vt 0.394393 0.300583
vt 0.394564 0.178280
vt 0.394564 0.273507
vt 0.488327 0.273507
vt 0.488327 0.178280
vt 0.299337 0.178280
vt 0.299337 0.273507
vt 0.393100 0.273507
vt 0.393100 0.178280
vt 0.121253 0.849156
vt 0.103822 0.849156
vt 0.103822 0.866587
vt 0.121253 0.866587
vt 0.121253 0.831725
vt 0.103822 0.831725
vt 0.138684 0.849156
vt 0.138684 0.866587
vt 0.138684 0.831725
vt 0.086392 0.884018
vt 0.156115 0.884018
vt 0.086392 0.814294
vt 0.156115 0.814294
vt 0.437786 0.506806
vt 0.417575 0.506806
vt 0.417575 0.520220
vt 0.437786 0.520220
vt 0.437786 0.493392
vt 0.417575 0.493392
vt 0.457996 0.506806
vt 0.457996 0.520220
vt 0.457996 0.493392
vt 0.397365 0.533634
vt 0.478207 0.533634
vt 0.397365 0.479979
vt 0.478207 0.479979
vt 0.258184 0.113789
vt 0.258184 0.127203
vt 0.278028 0.127203
vt 0.278028 0.113789
vt 0.238339 0.113789
vt 0.238339 0.127203
vt 0.258184 0.100375
vt 0.278028 0.100375
vt 0.238339 0.100375
vt 0.297872 0.140617
vt 0.297872 0.086961
vt 0.218495 0.140617
vt 0.218495 0.086961
vt 0.182901 0.036592
vt 0.165836 0.036592
vt 0.165836 0.054023
vt 0.182901 0.054023
vt 0.182901 0.019161
vt 0.165836 0.019161
vt 0.199965 0.036592
vt 0.199965 0.054023
vt 0.199965 0.019161
vt 0.148771 0.071454
vt 0.217030 0.071454
vt 0.148771 0.001730
vt 0.217030 0.001730
vt 0.437786 0.437895
vt 0.417575 0.437895
vt 0.417575 0.451309
vt 0.437786 0.451309
vt 0.437786 0.424481
vt 0.417575 0.424481
vt 0.457996 0.437895
vt 0.457996 0.451309
vt 0.457996 0.424481
vt 0.397365 0.464723
vt 0.478207 0.464723
vt 0.397365 0.411067
vt 0.478207 0.411067
vt 0.182516 0.106873
vt 0.182516 0.123745
vt 0.199388 0.123745
vt 0.199388 0.106873
vt 0.165644 0.106873
vt 0.165644 0.123745
vt 0.182516 0.090001
vt 0.199388 0.090001
vt 0.165644 0.090001
vt 0.216260 0.140617
vt 0.216260 0.073128
vt 0.148771 0.140617
vt 0.148771 0.073128
vt 0.105360 0.321697
vt 0.105360 0.335111
vt 0.125571 0.335111
vt 0.125571 0.321697
vt 0.085150 0.321697
vt 0.085150 0.335111
vt 0.105360 0.308284
vt 0.125571 0.308284
vt 0.085150 0.308284
vt 0.145781 0.348525
vt 0.145781 0.294870
vt 0.064939 0.348525
vt 0.064939 0.294870
vt 0.252239 0.044592
vt 0.252239 0.061465
vt 0.269112 0.061465
vt 0.269112 0.044592
vt 0.235367 0.044592
vt 0.235367 0.061465
vt 0.252239 0.027720
vt 0.269112 0.027720
vt 0.235367 0.027720
vt 0.285984 0.078337
vt 0.285984 0.010848
vt 0.218495 0.078337
vt 0.218495 0.010848
vt 0.440581 0.596363
vt 0.447395 0.596363
vt 0.447395 0.569230
vt 0.440581 0.569230
vt 0.042963 0.938632
vt 0.049778 0.938632
vt 0.049778 0.908820
vt 0.042963 0.908820
vt 0.118488 1.000000
vt 0.125302 1.000000
vt 0.125302 0.967517
vt 0.118488 0.967517
vt 0.143998 0.943990
vt 0.150812 0.943990
vt 0.150812 0.909209
vt 0.143998 0.909209
vt 0.253060 0.885624
vt 0.259874 0.885624
vt 0.259874 0.849219
vt 0.253060 0.849219
vt 0.319787 0.885624
vt 0.326601 0.885624
vt 0.326601 0.848378
vt 0.319787 0.848378
vt 0.308666 0.885624
vt 0.315480 0.885624
vt 0.315480 0.848378
vt 0.308666 0.848378
vt 0.241939 0.885624
vt 0.248753 0.885624
vt 0.248753 0.849219
vt 0.241939 0.849219
vt 0.165576 0.943990
vt 0.172391 0.943990
vt 0.172391 0.909209
vt 0.165576 0.909209
vt 0.107699 1.000000
vt 0.114513 1.000000
vt 0.114513 0.967517
vt 0.107699 0.967517
vt 0.053753 0.938632
vt 0.060567 0.938632
vt 0.060567 0.908820
vt 0.053753 0.908820
vt 0.420640 0.596363
vt 0.427455 0.596363
vt 0.427455 0.569230
vt 0.420640 0.569230
vt 0.356545 0.622682
vt 0.363359 0.622682
vt 0.363359 0.597790
vt 0.356545 0.597790
vt 0.339453 0.627997
vt 0.339453 0.651595
vt 0.346268 0.651595
vt 0.346268 0.627997
vt 0.330908 0.651595
vt 0.337722 0.651595
vt 0.337722 0.627997
vt 0.330908 0.627997
vt 0.347999 0.622682
vt 0.354813 0.622682
vt 0.354813 0.597790
vt 0.347999 0.597790
vt 0.410670 0.596363
vt 0.417484 0.596363
vt 0.417484 0.569230
vt 0.410670 0.569230
vt 0.075331 0.938632
vt 0.082145 0.938632
vt 0.082145 0.908820
vt 0.075331 0.908820
vt 0.096909 1.000000
vt 0.103724 1.000000
vt 0.103724 0.967517
vt 0.096909 0.967517
vt 0.154787 0.943990
vt 0.161602 0.943990
vt 0.161602 0.909209
vt 0.154787 0.909209
vt 0.275302 0.885624
vt 0.282117 0.885624
vt 0.282117 0.849219
vt 0.275302 0.849219
vt 0.297544 0.885624
vt 0.304359 0.885624
vt 0.304359 0.848378
vt 0.297544 0.848378
vt 0.286423 0.885624
vt 0.293238 0.885624
vt 0.293238 0.848378
vt 0.286423 0.848378
vt 0.264181 0.885624
vt 0.270996 0.885624
vt 0.270996 0.849219
vt 0.264181 0.849219
vt 0.133209 0.943990
vt 0.140023 0.943990
vt 0.140023 0.909209
vt 0.133209 0.909209
vt 0.086120 1.000000
vt 0.092935 1.000000
vt 0.092935 0.967517
vt 0.086120 0.967517
vt 0.064542 0.938632
vt 0.071356 0.938632
vt 0.071356 0.908820
vt 0.064542 0.908820
vt 0.430610 0.596363
vt 0.437425 0.596363
vt 0.437425 0.569230
vt 0.430610 0.569230
vt 0.339453 0.622682
vt 0.346268 0.622682
vt 0.346268 0.597790
vt 0.339453 0.597790
vt 0.356545 0.651595
vt 0.363359 0.651595
vt 0.363359 0.627997
vt 0.356545 0.627997
vt 0.347999 0.651595
vt 0.354813 0.651595
vt 0.354813 0.627997
vt 0.347999 0.627997
vt 0.330908 0.622682
vt 0.337722 0.622682
vt 0.337722 0.597790
vt 0.330908 0.597790
s 0
usemtl __DEFAULT.001
f 7/1/1 4/2/1 3/3/1
f 3/3/2 6/4/2 7/1/2
f 8/5/3 5/6/3 4/2/3
f 4/2/4 7/1/4 8/5/4
f 10/7/4 7/1/4 6/4/4
f 6/4/5 9/8/5 10/7/5
f 11/9/6 8/5/6 7/1/6
f 7/1/2 10/7/2 11/9/2
f 3/3/7 1/10/7 6/4/7
f 12/11/8 6/4/8 1/10/8
f 4/2/9 1/10/9 3/3/9
f 5/6/10 2/12/10 4/2/10
f 1/10/3 4/2/3 2/12/3
f 8/5/11 2/12/11 5/6/11
f 10/7/12 9/8/12 12/11/12
f 6/4/12 12/11/12 9/8/12
f 13/13/13 10/7/13 12/11/13
f 13/13/14 8/5/14 11/9/14
f 10/7/15 13/13/15 11/9/15
f 2/12/11 8/5/11 13/13/11
f 20/14/16 17/15/16 16/16/16
f 16/16/17 19/17/17 20/14/17
f 21/18/18 18/19/18 17/15/18
f 17/15/19 20/14/19 21/18/19
f 23/20/19 20/14/19 19/17/19
f 19/17/20 22/21/20 23/20/20
f 24/22/21 21/18/21 20/14/21
f 20/14/22 23/20/22 24/22/22
f 16/16/23 14/23/23 19/17/23
f 25/24/20 19/17/20 14/23/20
f 17/15/24 14/23/24 16/16/24
f 18/19/25 15/25/25 17/15/25
f 14/23/21 17/15/21 15/25/21
f 21/18/26 15/25/26 18/19/26
f 23/20/27 22/21/27 25/24/27
f 19/17/28 25/24/28 22/21/28
f 26/26/29 23/20/29 25/24/29
f 26/26/30 21/18/30 24/22/30
f 23/20/31 26/26/31 24/22/31
f 15/25/32 21/18/32 26/26/32
f 33/27/33 30/28/33 29/29/33
f 29/29/34 32/30/34 33/27/34
f 34/31/35 31/32/35 30/28/35
f 30/28/36 33/27/36 34/31/36
f 36/33/37 33/27/37 32/30/37
f 32/30/38 35/34/38 36/33/38
f 37/35/33 34/31/33 33/27/33
f 33/27/34 36/33/34 37/35/34
f 29/29/39 27/36/39 32/30/39
f 38/37/40 32/30/40 27/36/40
f 30/28/41 27/36/41 29/29/41
f 31/32/42 28/38/42 30/28/42
f 27/36/43 30/28/43 28/38/43
f 34/31/44 28/38/44 31/32/44
f 36/33/45 35/34/45 38/37/45
f 32/30/46 38/37/46 35/34/46
f 39/39/45 36/33/45 38/37/45
f 39/39/47 34/31/47 37/35/47
f 36/33/48 39/39/48 37/35/48
f 28/38/49 34/31/49 39/39/49
f 46/40/50 43/41/50 42/42/50
f 42/42/51 45/43/51 46/40/51
f 47/44/52 44/45/52 43/41/52
f 43/41/53 46/40/53 47/44/53
f 49/46/53 46/40/53 45/43/53
f 45/43/54 48/47/54 49/46/54
f 50/48/55 47/44/55 46/40/55
f 46/40/56 49/46/56 50/48/56
f 42/42/50 40/49/50 45/43/50
f 51/50/57 45/43/57 40/49/57
f 43/41/51 40/49/51 42/42/51
f 44/45/58 41/51/58 43/41/58
f 40/49/59 43/41/59 41/51/59
f 47/44/60 41/51/60 44/45/60
f 49/46/61 48/47/61 51/50/61
f 45/43/62 51/50/62 48/47/62
f 52/52/63 49/46/63 51/50/63
f 52/52/64 47/44/64 50/48/64
f 49/46/65 52/52/65 50/48/65
f 41/51/66 47/44/66 52/52/66
f 59/53/67 56/54/67 55/55/67
f 55/55/68 58/56/68 59/53/68
f 60/57/69 57/58/69 56/54/69
f 56/54/70 59/53/70 60/57/70
f 62/59/70 59/53/70 58/56/70
f 58/56/71 61/60/71 62/59/71
f 63/61/67 60/57/67 59/53/67
f 59/53/72 62/59/72 63/61/72
f 55/55/73 53/62/73 58/56/73
f 64/63/71 58/56/71 53/62/71
f 56/54/74 53/62/74 55/55/74
f 57/58/75 54/64/75 56/54/75
f 53/62/76 56/54/76 54/64/76
f 60/57/75 54/64/75 57/58/75
f 62/59/77 61/60/77 64/63/77
f 58/56/78 64/63/78 61/60/78
f 65/65/79 62/59/79 64/63/79
f 65/65/80 60/57/80 63/61/80
f 62/59/81 65/65/81 63/61/81
f 54/64/82 60/57/82 65/65/82
f 72/66/83 69/67/83 68/68/83
f 68/68/84 71/69/84 72/66/84
f 73/70/85 70/71/85 69/67/85
f 69/67/86 72/66/86 73/70/86
f 75/72/86 72/66/86 71/69/86
f 71/69/87 74/73/87 75/72/87
f 76/74/88 73/70/88 72/66/88
f 72/66/84 75/72/84 76/74/84
f 68/68/89 66/75/89 71/69/89
f 77/76/90 71/69/90 66/75/90
f 69/67/91 66/75/91 68/68/91
f 70/71/92 67/77/92 69/67/92
f 66/75/85 69/67/85 67/77/85
f 73/70/93 67/77/93 70/71/93
f 75/72/94 74/73/94 77/76/94
f 71/69/95 77/76/95 74/73/95
f 78/78/96 75/72/96 77/76/96
f 78/78/97 73/70/97 76/74/97
f 75/72/98 78/78/98 76/74/98
f 67/77/99 73/70/99 78/78/99
f 85/79/100 82/80/100 81/81/100
f 81/81/101 84/82/101 85/79/101
f 86/83/102 83/84/102 82/80/102
f 82/80/103 85/79/103 86/83/103
f 88/85/103 85/79/103 84/82/103
f 84/82/104 87/86/104 88/85/104
f 89/87/105 86/83/105 85/79/105
f 85/79/106 88/85/106 89/87/106
f 81/81/100 79/88/100 84/82/100
f 90/89/107 84/82/107 79/88/107
f 82/80/101 79/88/101 81/81/101
f 83/84/108 80/90/108 82/80/108
f 79/88/109 82/80/109 80/90/109
f 86/83/110 80/90/110 83/84/110
f 88/85/111 87/86/111 90/89/111
f 84/82/112 90/89/112 87/86/112
f 91/91/113 88/85/113 90/89/113
f 91/91/114 86/83/114 89/87/114
f 88/85/115 91/91/115 89/87/115
f 80/90/116 86/83/116 91/91/116
f 98/92/117 95/93/117 94/94/117
f 94/94/118 97/95/118 98/92/118
f 99/96/119 96/97/119 95/93/119
f 95/93/119 98/92/119 99/96/119
f 101/98/120 98/92/120 97/95/120
f 97/95/118 100/99/118 101/98/118
f 102/100/121 99/96/121 98/92/121
f 98/92/121 101/98/121 102/100/121
f 94/94/122 92/101/122 97/95/122
f 103/102/123 97/95/123 92/101/123
f 95/93/117 92/101/117 94/94/117
f 96/97/124 93/103/124 95/93/124
f 92/101/125 95/93/125 93/103/125
f 99/96/126 93/103/126 96/97/126
f 101/98/118 100/99/118 103/102/118
f 97/95/120 103/102/120 100/99/120
f 104/104/121 101/98/121 103/102/121
f 104/104/121 99/96/121 102/100/121
f 101/98/127 104/104/127 102/100/127
f 93/103/124 99/96/124 104/104/124
f 111/105/128 108/106/128 107/107/128
f 107/107/129 110/108/129 111/105/129
f 112/109/130 109/110/130 108/106/130
f 108/106/131 111/105/131 112/109/131
f 114/111/131 111/105/131 110/108/131
f 110/108/132 113/112/132 114/111/132
f 115/113/133 112/109/133 111/105/133
f 111/105/134 114/111/134 115/113/134
f 107/107/135 105/114/135 110/108/135
f 116/115/136 110/108/136 105/114/136
f 108/106/137 105/114/137 107/107/137
f 109/110/138 106/116/138 108/106/138
f 105/114/139 108/106/139 106/116/139
f 112/109/140 106/116/140 109/110/140
f 114/111/141 113/112/141 116/115/141
f 110/108/134 116/115/134 113/112/134
f 117/117/142 114/111/142 116/115/142
f 117/117/143 112/109/143 115/113/143
f 114/111/144 117/117/144 115/113/144
f 106/116/145 112/109/145 117/117/145
f 124/118/146 121/119/146 120/120/146
f 120/120/147 123/121/147 124/118/147
f 125/122/148 122/123/148 121/119/148
f 121/119/149 124/118/149 125/122/149
f 127/124/149 124/118/149 123/121/149
f 123/121/150 126/125/150 127/124/150
f 128/126/151 125/122/151 124/118/151
f 124/118/152 127/124/152 128/126/152
f 120/120/153 118/127/153 123/121/153
f 129/128/154 123/121/154 118/127/154
f 121/119/155 118/127/155 120/120/155
f 122/123/156 119/129/156 121/119/156
f 118/127/157 121/119/157 119/129/157
f 125/122/158 119/129/158 122/123/158
f 127/124/147 126/125/147 129/128/147
f 123/121/159 129/128/159 126/125/159
f 130/130/160 127/124/160 129/128/160
f 130/130/161 125/122/161 128/126/161
f 127/124/162 130/130/162 128/126/162
f 119/129/163 125/122/163 130/130/163
f 137/131/164 134/132/164 133/133/164
f 133/133/165 136/134/165 137/131/165
f 138/135/166 135/136/166 134/132/166
f 134/132/167 137/131/167 138/135/167
f 140/137/167 137/131/167 136/134/167
f 136/134/168 139/138/168 140/137/168
f 141/139/169 138/135/169 137/131/169
f 137/131/165 140/137/165 141/139/165
f 133/133/170 131/140/170 136/134/170
f 142/141/171 136/134/171 131/140/171
f 134/132/172 131/140/172 133/133/172
f 135/136/173 132/142/173 134/132/173
f 131/140/174 134/132/174 132/142/174
f 138/135/175 132/142/175 135/136/175
f 140/137/176 139/138/176 142/141/176
f 136/134/177 142/141/177 139/138/177
f 143/143/178 140/137/178 142/141/178
f 143/143/179 138/135/179 141/139/179
f 140/137/166 143/143/166 141/139/166
f 132/142/175 138/135/175 143/143/175
f 150/144/180 147/145/180 146/146/180
f 146/146/181 149/147/181 150/144/181
f 151/148/180 148/149/180 147/145/180
f 147/145/180 150/144/180 151/148/180
f 153/150/180 150/144/180 149/147/180
f 149/147/182 152/151/182 153/150/182
f 154/152/183 151/148/183 150/144/183
f 150/144/184 153/150/184 154/152/184
f 146/146/185 144/153/185 149/147/185
f 155/154/186 149/147/186 144/153/186
f 147/145/186 144/153/186 146/146/186
f 148/149/187 145/155/187 147/145/187
f 144/153/188 147/145/188 145/155/188
f 151/148/189 145/155/189 148/149/189
f 153/150/186 152/151/186 155/154/186
f 149/147/182 155/154/182 152/151/182
f 156/156/184 153/150/184 155/154/184
f 156/156/183 151/148/183 154/152/183
f 153/150/190 156/156/190 154/152/190
f 145/155/191 151/148/191 156/156/191
f 163/157/192 160/158/192 159/159/192
f 159/159/192 162/160/192 163/157/192
f 164/161/193 161/162/193 160/158/193
f 160/158/194 163/157/194 164/161/194
f 166/163/194 163/157/194 162/160/194
f 162/160/194 165/164/194 166/163/194
f 167/165/195 164/161/195 163/157/195
f 163/157/196 166/163/196 167/165/196
f 159/159/197 157/166/197 162/160/197
f 168/167/192 162/160/192 157/166/192
f 160/158/197 157/166/197 159/159/197
f 161/162/198 158/168/198 160/158/198
f 157/166/199 160/158/199 158/168/199
f 164/161/200 158/168/200 161/162/200
f 166/163/192 165/164/192 168/167/192
f 162/160/196 168/167/196 165/164/196
f 169/169/195 166/163/195 168/167/195
f 169/169/201 164/161/201 167/165/201
f 166/163/202 169/169/202 167/165/202
f 158/168/203 164/161/203 169/169/203
f 176/170/204 173/171/204 172/172/204
f 172/172/205 175/173/205 176/170/205
f 177/174/206 174/175/206 173/171/206
f 173/171/207 176/170/207 177/174/207
f 179/176/207 176/170/207 175/173/207
f 175/173/207 178/177/207 179/176/207
f 180/178/208 177/174/208 176/170/208
f 176/170/209 179/176/209 180/178/209
f 172/172/210 170/179/210 175/173/210
f 181/180/205 175/173/205 170/179/205
f 173/171/211 170/179/211 172/172/211
f 174/175/212 171/181/212 173/171/212
f 170/179/213 173/171/213 171/181/213
f 177/174/214 171/181/214 174/175/214
f 179/176/215 178/177/215 181/180/215
f 175/173/216 181/180/216 178/177/216
f 182/182/217 179/176/217 181/180/217
f 182/182/218 177/174/218 180/178/218
f 179/176/219 182/182/219 180/178/219
f 171/181/220 177/174/220 182/182/220
f 189/183/221 186/184/221 185/185/221
f 185/185/222 188/186/222 189/183/222
f 190/187/223 187/188/223 186/184/223
f 186/184/224 189/183/224 190/187/224
f 192/189/223 189/183/223 188/186/223
f 188/186/225 191/190/225 192/189/225
f 193/191/223 190/187/223 189/183/223
f 189/183/225 192/189/225 193/191/225
f 185/185/226 183/192/226 188/186/226
f 194/193/222 188/186/222 183/192/222
f 186/184/227 183/192/227 185/185/227
f 187/188/228 184/194/228 186/184/228
f 183/192/229 186/184/229 184/194/229
f 190/187/230 184/194/230 187/188/230
f 192/189/231 191/190/231 194/193/231
f 188/186/224 194/193/224 191/190/224
f 195/195/225 192/189/225 194/193/225
f 195/195/232 190/187/232 193/191/232
f 192/189/232 195/195/232 193/191/232
f 184/194/233 190/187/233 195/195/233
f 202/196/234 199/197/234 198/198/234
f 198/198/235 201/199/235 202/196/235
f 203/200/236 200/201/236 199/197/236
f 199/197/237 202/196/237 203/200/237
f 205/202/238 202/196/238 201/199/238
f 201/199/238 204/203/238 205/202/238
f 206/204/239 203/200/239 202/196/239
f 202/196/240 205/202/240 206/204/240
f 198/198/241 196/205/241 201/199/241
f 207/206/242 201/199/242 196/205/242
f 199/197/243 196/205/243 198/198/243
f 200/201/244 197/207/244 199/197/244
f 196/205/245 199/197/245 197/207/245
f 203/200/246 197/207/246 200/201/246
f 205/202/247 204/203/247 207/206/247
f 201/199/248 207/206/248 204/203/248
f 208/208/240 205/202/240 207/206/240
f 208/208/249 203/200/249 206/204/249
f 205/202/250 208/208/250 206/204/250
f 197/207/251 203/200/251 208/208/251
f 215/209/252 212/210/252 211/211/252
f 211/211/253 214/212/253 215/209/253
f 216/213/254 213/214/254 212/210/254
f 212/210/255 215/209/255 216/213/255
f 218/215/256 215/209/256 214/212/256
f 214/212/256 217/216/256 218/215/256
f 219/217/257 216/213/257 215/209/257
f 215/209/258 218/215/258 219/217/258
f 211/211/259 209/218/259 214/212/259
f 220/219/253 214/212/253 209/218/253
f 212/210/260 209/218/260 211/211/260
f 213/214/261 210/220/261 212/210/261
f 209/218/262 212/210/262 210/220/262
f 216/213/263 210/220/263 213/214/263
f 218/215/256 217/216/256 220/219/256
f 214/212/264 220/219/264 217/216/264
f 221/221/265 218/215/265 220/219/265
f 221/221/266 216/213/266 219/217/266
f 218/215/267 221/221/267 219/217/267
f 210/220/268 216/213/268 221/221/268
f 228/222/269 225/223/269 224/224/269
f 224/224/270 227/225/270 228/222/270
f 229/226/269 226/227/269 225/223/269
f 225/223/269 228/222/269 229/226/269
f 231/228/269 228/222/269 227/225/269
f 227/225/270 230/229/270 231/228/270
f 232/230/271 229/226/271 228/222/271
f 228/222/271 231/228/271 232/230/271
f 224/224/272 222/231/272 227/225/272
f 233/232/270 227/225/270 222/231/270
f 225/223/272 222/231/272 224/224/272
f 226/227/273 223/233/273 225/223/273
f 222/231/274 225/223/274 223/233/274
f 229/226/275 223/233/275 226/227/275
f 231/228/270 230/229/270 233/232/270
f 227/225/276 233/232/276 230/229/276
f 234/234/271 231/228/271 233/232/271
f 234/234/277 229/226/277 232/230/277
f 231/228/278 234/234/278 232/230/278
f 223/233/279 229/226/279 234/234/279
f 241/235/280 238/236/280 237/237/280
f 237/237/281 240/238/281 241/235/281
f 242/239/282 239/240/282 238/236/282
f 238/236/282 241/235/282 242/239/282
f 244/241/282 241/235/282 240/238/282
f 240/238/282 243/242/282 244/241/282
f 245/243/283 242/239/283 241/235/283
f 241/235/284 244/241/284 245/243/284
f 237/237/285 235/244/285 240/238/285
f 246/245/281 240/238/281 235/244/281
f 238/236/286 235/244/286 237/237/286
f 239/240/287 236/246/287 238/236/287
f 235/244/288 238/236/288 236/246/288
f 242/239/289 236/246/289 239/240/289
f 244/241/281 243/242/281 246/245/281
f 240/238/290 246/245/290 243/242/290
f 247/247/284 244/241/284 246/245/284
f 247/247/283 242/239/283 245/243/283
f 244/241/287 247/247/287 245/243/287
f 236/246/287 242/239/287 247/247/287
f 254/248/291 251/249/291 250/250/291
f 250/250/292 253/251/292 254/248/292
f 255/252/293 252/253/293 251/249/293
f 251/249/294 254/248/294 255/252/294
f 257/254/295 254/248/295 253/251/295
f 253/251/296 256/255/296 257/254/296
f 258/256/297 255/252/297 254/248/297
f 254/248/298 257/254/298 258/256/298
f 250/250/299 248/257/299 253/251/299
f 259/258/300 253/251/300 248/257/300
f 251/249/301 248/257/301 250/250/301
f 252/253/302 249/259/302 251/249/302
f 248/257/303 251/249/303 249/259/303
f 255/252/304 249/259/304 252/253/304
f 257/254/305 256/255/305 259/258/305
f 253/251/306 259/258/306 256/255/306
f 260/260/307 257/254/307 259/258/307
f 260/260/308 255/252/308 258/256/308
f 257/254/309 260/260/309 258/256/309
f 249/259/310 255/252/310 260/260/310
f 267/261/311 264/262/311 263/263/311
f 263/263/312 266/264/312 267/261/312
f 268/265/313 265/266/313 264/262/313
f 264/262/314 267/261/314 268/265/314
f 270/267/314 267/261/314 266/264/314
f 266/264/315 269/268/315 270/267/315
f 271/269/316 268/265/316 267/261/316
f 267/261/317 270/267/317 271/269/317
f 263/263/318 261/270/318 266/264/318
f 272/271/319 266/264/319 261/270/319
f 264/262/320 261/270/320 263/263/320
f 265/266/321 262/272/321 264/262/321
f 261/270/322 264/262/322 262/272/322
f 268/265/323 262/272/323 265/266/323
f 270/267/324 269/268/324 272/271/324
f 266/264/325 272/271/325 269/268/325
f 273/273/326 270/267/326 272/271/326
f 273/273/327 268/265/327 271/269/327
f 270/267/328 273/273/328 271/269/328
f 262/272/329 268/265/329 273/273/329
f 280/274/330 277/275/330 276/276/330
f 276/276/331 279/277/331 280/274/331
f 281/278/332 278/279/332 277/275/332
f 277/275/332 280/274/332 281/278/332
f 283/280/332 280/274/332 279/277/332
f 279/277/332 282/281/332 283/280/332
f 284/282/332 281/278/332 280/274/332
f 280/274/333 283/280/333 284/282/333
f 276/276/334 274/283/334 279/277/334
f 285/284/331 279/277/331 274/283/331
f 277/275/330 274/283/330 276/276/330
f 278/279/335 275/285/335 277/275/335
f 274/283/334 277/275/334 275/285/334
f 281/278/334 275/285/334 278/279/334
f 283/280/336 282/281/336 285/284/336
f 279/277/332 285/284/332 282/281/332
f 286/286/337 283/280/337 285/284/337
f 286/286/338 281/278/338 284/282/338
f 283/280/339 286/286/339 284/282/339
f 275/285/340 281/278/340 286/286/340
f 293/287/341 290/288/341 289/289/341
f 289/289/341 292/290/341 293/287/341
f 294/291/342 291/292/342 290/288/342
f 290/288/343 293/287/343 294/291/343
f 296/293/344 293/287/344 292/290/344
f 292/290/345 295/294/345 296/293/345
f 297/295/346 294/291/346 293/287/346
f 293/287/346 296/293/346 297/295/346
f 289/289/347 287/296/347 292/290/347
f 298/297/341 292/290/341 287/296/341
f 290/288/348 287/296/348 289/289/348
f 291/292/349 288/298/349 290/288/349
f 287/296/350 290/288/350 288/298/350
f 294/291/347 288/298/347 291/292/347
f 296/293/351 295/294/351 298/297/351
f 292/290/346 298/297/346 295/294/346
f 299/299/346 296/293/346 298/297/346
f 299/299/352 294/291/352 297/295/352
f 296/293/352 299/299/352 297/295/352
f 288/298/353 294/291/353 299/299/353
f 306/300/354 303/301/354 302/302/354
f 302/302/355 305/303/355 306/300/355
f 307/304/356 304/305/356 303/301/356
f 303/301/357 306/300/357 307/304/357
f 309/306/357 306/300/357 305/303/357
f 305/303/357 308/307/357 309/306/357
f 310/308/358 307/304/358 306/300/358
f 306/300/359 309/306/359 310/308/359
f 302/302/360 300/309/360 305/303/360
f 311/310/361 305/303/361 300/309/361
f 303/301/362 300/309/362 302/302/362
f 304/305/363 301/311/363 303/301/363
f 300/309/364 303/301/364 301/311/364
f 307/304/365 301/311/365 304/305/365
f 309/306/366 308/307/366 311/310/366
f 305/303/367 311/310/367 308/307/367
f 312/312/359 309/306/359 311/310/359
f 312/312/368 307/304/368 310/308/368
f 309/306/369 312/312/369 310/308/369
f 301/311/370 307/304/370 312/312/370
f 315/313/371 313/314/371 314/315/371
f 318/316/372 316/317/372 317/318/372
f 321/319/373 319/320/373 320/321/373
f 324/322/374 322/323/374 323/324/374
f 327/325/375 325/326/375 326/327/375
f 330/328/376 328/329/376 329/330/376
f 333/331/377 331/332/377 332/333/377
f 336/334/378 334/335/378 335/336/378
f 339/337/379 337/338/379 338/339/379
f 342/340/380 340/341/380 341/342/380
f 345/343/381 343/344/381 344/345/381
f 348/346/382 346/347/382 347/348/382
f 351/349/383 349/350/383 350/351/383
f 354/352/384 352/353/384 353/354/384
f 357/355/385 355/356/385 356/357/385
f 360/358/386 358/359/386 359/360/386
f 363/361/387 361/362/387 362/363/387
f 366/364/388 364/365/388 365/366/388
f 369/367/389 367/368/389 368/369/389
f 372/370/390 370/371/390 371/372/390
f 375/373/391 373/374/391 374/375/391
f 378/376/392 376/377/392 377/378/392
f 381/379/393 379/380/393 380/381/393
f 384/382/394 382/383/394 383/384/394
f 387/385/395 385/386/395 386/387/395
f 390/388/396 388/389/396 389/390/396
f 393/391/397 391/392/397 392/393/397
f 396/394/398 394/395/398 395/396/398
f 399/397/399 397/398/399 398/399/399
f 402/400/400 400/401/400 401/402/400
f 405/403/401 403/404/401 404/405/401
f 408/406/402 406/407/402 407/408/402
f 411/409/403 409/410/403 410/411/403
f 414/412/404 412/413/404 413/414/404
f 417/415/405 415/416/405 416/417/405
f 420/418/406 418/419/406 419/420/406
f 423/421/407 421/422/407 422/423/407
f 426/424/408 424/425/408 425/426/408
f 429/427/409 427/428/409 428/429/409
f 432/430/410 430/431/410 431/432/410
f 435/433/411 433/434/411 434/435/411
f 438/436/412 436/437/412 437/438/412
f 441/439/413 439/440/413 440/441/413
f 444/442/414 442/443/414 443/444/414
f 447/445/415 445/446/415 446/447/415
f 450/448/416 448/449/416 449/450/416
f 453/451/417 451/452/417 452/453/417
f 456/454/418 454/455/418 455/456/418
f 459/457/419 457/458/419 458/459/419
f 462/460/420 460/461/420 461/462/420
f 465/463/421 463/464/421 464/465/421
f 468/466/422 466/467/422 467/468/422
f 471/469/423 469/470/423 470/471/423
f 474/472/424 472/473/424 473/474/424
f 477/475/425 475/476/425 476/477/425
f 480/478/426 478/479/426 479/480/426
f 483/481/427 481/482/427 482/483/427
f 486/484/428 484/485/428 485/486/428
f 489/487/429 487/488/429 488/489/429
f 492/490/430 490/491/430 491/492/430
f 495/493/431 493/494/431 494/495/431
f 498/496/432 496/497/432 497/498/432
f 501/499/433 499/500/433 500/501/433
f 504/502/434 502/503/434 503/504/434
f 507/505/435 505/506/435 506/507/435
f 510/508/436 508/509/436 509/510/436
f 513/511/437 511/512/437 512/513/437
f 516/514/438 514/515/438 515/516/438
f 519/517/439 517/518/439 518/519/439
f 522/520/440 520/521/440 521/522/440
f 525/523/441 523/524/441 524/525/441
f 528/526/442 526/527/442 527/528/442
f 530/529/443 529/530/443 531/531/443
f 531/531/443 532/532/443 530/529/443
f 534/533/443 533/534/443 535/535/443
f 535/535/443 536/536/443 534/533/443
f 538/537/443 537/538/443 539/539/443
f 539/539/443 540/540/443 538/537/443
f 542/541/443 541/542/443 543/543/443
f 543/543/443 544/544/443 542/541/443
f 551/545/444 548/546/444 547/547/444
f 547/547/445 550/548/445 551/545/445
f 552/549/446 549/550/446 548/546/446
f 548/546/447 551/545/447 552/549/447
f 554/551/447 551/545/447 550/548/447
f 550/548/448 553/552/448 554/551/448
f 555/553/449 552/549/449 551/545/449
f 551/545/450 554/551/450 555/553/450
f 547/547/451 545/554/451 550/548/451
f 556/555/448 550/548/448 545/554/448
f 548/546/452 545/554/452 547/547/452
f 549/550/453 546/556/453 548/546/453
f 545/554/451 548/546/451 546/556/451
f 552/549/454 546/556/454 549/550/454
f 554/551/455 553/552/455 556/555/455
f 550/548/456 556/555/456 553/552/456
f 557/557/457 554/551/457 556/555/457
f 557/557/458 552/549/458 555/553/458
f 554/551/459 557/557/459 555/553/459
f 546/556/459 552/549/459 557/557/459
f 564/558/460 561/559/460 560/560/460
f 560/560/461 563/561/461 564/558/461
f 565/562/462 562/563/462 561/559/462
f 561/559/463 564/558/463 565/562/463
f 567/564/463 564/558/463 563/561/463
f 563/561/464 566/565/464 567/564/464
f 568/566/460 565/562/460 564/558/460
f 564/558/465 567/564/465 568/566/465
f 560/560/466 558/567/466 563/561/466
f 569/568/461 563/561/461 558/567/461
f 561/559/461 558/567/461 560/560/461
f 562/563/467 559/569/467 561/559/467
f 558/567/468 561/559/468 559/569/468
f 565/562/469 559/569/469 562/563/469
f 567/564/464 566/565/464 569/568/464
f 563/561/470 569/568/470 566/565/470
f 570/570/470 567/564/470 569/568/470
f 570/570/471 565/562/471 568/566/471
f 567/564/472 570/570/472 568/566/472
f 559/569/473 565/562/473 570/570/473
f 577/571/474 574/572/474 573/573/474
f 573/573/475 576/574/475 577/571/475
f 578/575/476 575/576/476 574/572/476
f 574/572/477 577/571/477 578/575/477
f 580/577/475 577/571/475 576/574/475
f 576/574/475 579/578/475 580/577/475
f 581/579/474 578/575/474 577/571/474
f 577/571/478 580/577/478 581/579/478
f 573/573/479 571/580/479 576/574/479
f 582/581/480 576/574/480 571/580/480
f 574/572/481 571/580/481 573/573/481
f 575/576/482 572/582/482 574/572/482
f 571/580/483 574/572/483 572/582/483
f 578/575/484 572/582/484 575/576/484
f 580/577/480 579/578/480 582/581/480
f 576/574/485 582/581/485 579/578/485
f 583/583/478 580/577/478 582/581/478
f 583/583/478 578/575/478 581/579/478
f 580/577/486 583/583/486 581/579/486
f 572/582/487 578/575/487 583/583/487
f 590/584/488 587/585/488 586/586/488
f 586/586/489 589/587/489 590/584/489
f 591/588/490 588/589/490 587/585/490
f 587/585/491 590/584/491 591/588/491
f 593/590/491 590/584/491 589/587/491
f 589/587/492 592/591/492 593/590/492
f 594/592/493 591/588/493 590/584/493
f 590/584/494 593/590/494 594/592/494
f 586/586/495 584/593/495 589/587/495
f 595/594/496 589/587/496 584/593/496
f 587/585/497 584/593/497 586/586/497
f 588/589/498 585/595/498 587/585/498
f 584/593/495 587/585/495 585/595/495
f 591/588/499 585/595/499 588/589/499
f 593/590/500 592/591/500 595/594/500
f 589/587/501 595/594/501 592/591/501
f 596/596/492 593/590/492 595/594/492
f 596/596/502 591/588/502 594/592/502
f 593/590/503 596/596/503 594/592/503
f 585/595/504 591/588/504 596/596/504
f 603/597/505 600/598/505 599/599/505
f 599/599/506 602/600/506 603/597/506
f 604/601/507 601/602/507 600/598/507
f 600/598/506 603/597/506 604/601/506
f 606/603/508 603/597/508 602/600/508
f 602/600/508 605/604/508 606/603/508
f 607/605/509 604/601/509 603/597/509
f 603/597/510 606/603/510 607/605/510
f 599/599/511 597/606/511 602/600/511
f 608/607/506 602/600/506 597/606/506
f 600/598/506 597/606/506 599/599/506
f 601/602/512 598/608/512 600/598/512
f 597/606/513 600/598/513 598/608/513
f 604/601/514 598/608/514 601/602/514
f 606/603/515 605/604/515 608/607/515
f 602/600/516 608/607/516 605/604/516
f 609/609/517 606/603/517 608/607/517
f 609/609/510 604/601/510 607/605/510
f 606/603/510 609/609/510 607/605/510
f 598/608/518 604/601/518 609/609/518
f 616/610/519 613/611/519 612/612/519
f 612/612/520 615/613/520 616/610/520
f 617/614/521 614/615/521 613/611/521
f 613/611/522 616/610/522 617/614/522
f 619/616/522 616/610/522 615/613/522
f 615/613/523 618/617/523 619/616/523
f 620/618/524 617/614/524 616/610/524
f 616/610/525 619/616/525 620/618/525
f 612/612/526 610/619/526 615/613/526
f 621/620/527 615/613/527 610/619/527
f 613/611/528 610/619/528 612/612/528
f 614/615/529 611/621/529 613/611/529
f 610/619/530 613/611/530 611/621/530
f 617/614/531 611/621/531 614/615/531
f 619/616/527 618/617/527 621/620/527
f 615/613/532 621/620/532 618/617/532
f 622/622/532 619/616/532 621/620/532
f 622/622/533 617/614/533 620/618/533
f 619/616/534 622/622/534 620/618/534
f 611/621/535 617/614/535 622/622/535
f 629/623/536 626/624/536 625/625/536
f 625/625/537 628/626/537 629/623/537
f 630/627/538 627/628/538 626/624/538
f 626/624/539 629/623/539 630/627/539
f 632/629/539 629/623/539 628/626/539
f 628/626/537 631/630/537 632/629/537
f 633/631/540 630/627/540 629/623/540
f 629/623/539 632/629/539 633/631/539
f 625/625/541 623/632/541 628/626/541
f 634/633/542 628/626/542 623/632/542
f 626/624/543 623/632/543 625/625/543
f 627/628/544 624/634/544 626/624/544
f 623/632/545 626/624/545 624/634/545
f 630/627/546 624/634/546 627/628/546
f 632/629/547 631/630/547 634/633/547
f 628/626/548 634/633/548 631/630/548
f 635/635/539 632/629/539 634/633/539
f 635/635/539 630/627/539 633/631/539
f 632/629/549 635/635/549 633/631/549
f 624/634/549 630/627/549 635/635/549
f 642/636/550 639/637/550 638/638/550
f 638/638/551 641/639/551 642/636/551
f 643/640/552 640/641/552 639/637/552
f 639/637/553 642/636/553 643/640/553
f 645/642/553 642/636/553 641/639/553
f 641/639/554 644/643/554 645/642/554
f 646/644/555 643/640/555 642/636/555
f 642/636/556 645/642/556 646/644/556
f 638/638/557 636/645/557 641/639/557
f 647/646/551 641/639/551 636/645/551
f 639/637/558 636/645/558 638/638/558
f 640/641/559 637/647/559 639/637/559
f 636/645/560 639/637/560 637/647/560
f 643/640/561 637/647/561 640/641/561
f 645/642/551 644/643/551 647/646/551
f 641/639/556 647/646/556 644/643/556
f 648/648/556 645/642/556 647/646/556
f 648/648/562 643/640/562 646/644/562
f 645/642/563 648/648/563 646/644/563
f 637/647/564 643/640/564 648/648/564
f 650/649/430 649/650/430 651/651/430
f 651/651/430 652/652/430 650/649/430
f 654/653/431 653/654/431 655/655/431
f 655/655/431 656/656/431 654/653/431
f 658/657/432 657/658/432 659/659/432
f 659/659/432 660/660/432 658/657/432
f 662/661/433 661/662/433 663/663/433
f 663/663/433 664/664/433 662/661/433
f 666/665/434 665/666/434 667/667/434
f 667/667/434 668/668/434 666/665/434
f 670/669/435 669/670/435 671/671/435
f 671/671/435 672/672/435 670/669/435
f 674/673/436 673/674/436 675/675/436
f 675/675/436 676/676/436 674/673/436
f 678/677/437 677/678/437 679/679/437
f 679/679/437 680/680/437 678/677/437
f 682/681/438 681/682/438 683/683/438
f 683/683/438 684/684/438 682/681/438
f 686/685/439 685/686/439 687/687/439
f 687/687/439 688/688/439 686/685/439
f 690/689/565 689/690/565 691/691/565
f 691/691/440 692/692/440 690/689/440
f 694/693/441 693/694/441 695/695/441
f 695/695/441 696/696/441 694/693/441
f 698/697/442 697/698/442 699/699/442
f 699/699/442 700/700/442 698/697/442
f 702/701/411 701/702/411 703/703/411
f 703/703/411 704/704/411 702/701/411
f 706/705/412 705/706/412 707/707/412
f 707/707/412 708/708/412 706/705/412
f 710/709/413 709/710/413 711/711/413
f 711/711/413 712/712/413 710/709/413
f 714/713/414 713/714/414 715/715/414
f 715/715/414 716/716/414 714/713/414
f 718/717/566 717/718/566 719/719/566
f 719/719/566 720/720/566 718/717/566
f 722/721/416 721/722/416 723/723/416
f 723/723/416 724/724/416 722/721/416
f 726/725/417 725/726/417 727/727/417
f 727/727/417 728/728/417 726/725/417
f 730/729/418 729/730/418 731/731/418
f 731/731/418 732/732/418 730/729/418
f 734/733/419 733/734/419 735/735/419
f 735/735/419 736/736/419 734/733/419
f 738/737/420 737/738/420 739/739/420
f 739/739/420 740/740/420 738/737/420
f 742/741/421 741/742/421 743/743/421
f 743/743/421 744/744/421 742/741/421
f 746/745/422 745/746/422 747/747/422
f 747/747/422 748/748/422 746/745/422
f 750/749/567 749/750/567 751/751/567
f 751/751/423 752/752/423 750/749/423
f 754/753/424 753/754/424 755/755/424
f 755/755/424 756/756/424 754/753/424
f 758/757/425 757/758/425 759/759/425
f 759/759/425 760/760/425 758/757/425
f 762/761/426 761/762/426 763/763/426
f 763/763/426 764/764/426 762/761/426
f 766/765/427 765/766/427 767/767/427
f 767/767/427 768/768/427 766/765/427
f 770/769/428 769/770/428 771/771/428
f 771/771/428 772/772/428 770/769/428
f 774/773/429 773/774/429 775/775/429
f 775/775/429 776/776/429 774/773/429
