<svg width="39" height="39" viewBox="0 0 39 39" fill="none" xmlns="http://www.w3.org/2000/svg">
<path d="M19.7068 5.29511L19.7068 12.1994" stroke="black" stroke-width="2" stroke-linecap="round"/>
<path d="M17.53 16.6119C17.53 14.4833 17.5954 10.5321 19.9168 10.4733C22.2383 10.4144 22.2571 14.5922 22.2571 16.6119" stroke="black" stroke-width="2" stroke-linecap="round"/>
<path d="M15.9581 17.4031C15.8287 16.5218 16.8832 16.0258 17.4835 16.5947L17.5971 16.7231C18.6492 18.1339 20.6895 18.2893 21.944 17.0912L22.0633 16.9709C22.6717 16.3206 23.7171 16.8359 23.6464 17.66L23.617 17.8287C23.17 19.5309 24.3201 21.2229 26.039 21.4568L26.2071 21.4748C27.0951 21.5448 27.344 22.6834 26.6557 23.1421L26.5059 23.2244C24.8963 23.9362 24.29 25.8906 25.1788 27.3803L25.2699 27.5233C25.7683 28.261 25.0335 29.1654 24.2459 28.9134L24.0882 28.8467C22.5281 28.0321 20.6216 28.777 20.0111 30.4007L19.956 30.561C19.6901 31.4108 18.5257 31.4002 18.2316 30.6273L18.1846 30.4629C17.8488 28.7354 16.0783 27.7088 14.4282 28.2437L14.2692 28.3012C13.439 28.6234 12.7205 27.7059 13.1411 26.9941L13.2407 26.8544C14.3822 25.5145 14.0801 23.4904 12.6324 22.5341L12.4898 22.4452C11.7203 21.997 11.9893 20.8632 12.8082 20.7484L12.9791 20.7398C14.738 20.7969 16.1324 19.299 15.9782 17.5713L15.9581 17.4031Z" stroke="black" stroke-width="2"/>
</svg>
