<svg xmlns="http://www.w3.org/2000/svg" viewBox="0 0 64 64" aria-hidden="true">
  <defs>
    <radialGradient id="bg" cx="35%" cy="30%" r="65%">
      <stop offset="0%" stop-color="#f5f5f5"/>
      <stop offset="55%" stop-color="#d2d2d2"/>
      <stop offset="100%" stop-color="#a8a8a8"/>
    </radialGradient>
  </defs>
  <ellipse cx="32" cy="32" rx="26" ry="22" fill="none" stroke="#1a1a1a" stroke-width="1.6" stroke-linecap="round"/>
  <circle cx="32" cy="10" r="3" fill="url(#bg)"/>
  <circle cx="38.7" cy="10.7" r="3" fill="url(#bg)"/>
  <circle cx="45" cy="12.9" r="3" fill="url(#bg)"/>
  <circle cx="50.4" cy="16.4" r="3" fill="url(#bg)"/>
  <circle cx="54.5" cy="21" r="3" fill="url(#bg)"/>
  <circle cx="57.1" cy="26.3" r="3" fill="url(#bg)"/>
  <circle cx="58" cy="32" r="3" fill="url(#bg)"/>
  <circle cx="57.1" cy="37.7" r="3" fill="url(#bg)"/>
  <circle cx="54.5" cy="43" r="3" fill="url(#bg)"/>
  <circle cx="50.4" cy="47.6" r="3" fill="url(#bg)"/>
  <circle cx="45" cy="51.1" r="3" fill="url(#bg)"/>
  <circle cx="38.7" cy="53.3" r="3" fill="url(#bg)"/>
  <circle cx="25.3" cy="53.3" r="3" fill="url(#bg)"/>
  <circle cx="19" cy="51.1" r="3" fill="url(#bg)"/>
  <circle cx="13.6" cy="47.6" r="3" fill="url(#bg)"/>
  <circle cx="9.5" cy="43" r="3" fill="url(#bg)"/>
  <circle cx="6.9" cy="37.7" r="3" fill="url(#bg)"/>
  <circle cx="6" cy="32" r="3" fill="url(#bg)"/>
  <circle cx="6.9" cy="26.3" r="3" fill="url(#bg)"/>
  <circle cx="9.5" cy="21" r="3" fill="url(#bg)"/>
  <circle cx="13.6" cy="16.4" r="3" fill="url(#bg)"/>
  <circle cx="19" cy="12.9" r="3" fill="url(#bg)"/>
  <circle cx="25.3" cy="10.7" r="3" fill="url(#bg)"/>
  <circle cx="32" cy="56" r="2.2" fill="#d4af37"/>
  <rect x="30.5" y="56" width="3" height="5" rx="1" fill="#d4af37"/>
  <circle cx="32" cy="62" r="2.8" fill="#f5d0e8" stroke="#111" stroke-width="0.6"/>
</svg>
